<?xml version="1.0" encoding="utf-8"?>
<svg xmlns="http://www.w3.org/2000/svg" xmlns:xlink="http://www.w3.org/1999/xlink" width="800" height="450" viewBox="0 0 3200 1800">
<defs>
  <clipPath id="clip600">
    <rect x="0" y="0" width="3200" height="1800"/>
  </clipPath>
</defs>
<path clip-path="url(#clip600)" d="M0 1800 L3200 1800 L3200 0 L0 0  Z" fill="#ffffff" fill-rule="evenodd" fill-opacity="1"/>
<defs>
  <clipPath id="clip601">
    <rect x="640" y="0" width="2241" height="1800"/>
  </clipPath>
</defs>
<path clip-path="url(#clip600)" d="M176.02 1634 L3152.76 1634 L3152.76 114.022 L176.02 114.022  Z" fill="#ffffff" fill-rule="evenodd" fill-opacity="1"/>
<defs>
  <clipPath id="clip602">
    <rect x="176" y="114" width="2978" height="1521"/>
  </clipPath>
</defs>
<polyline clip-path="url(#clip602)" style="stroke:#000000; stroke-linecap:round; stroke-linejoin:round; stroke-width:2; stroke-opacity:0.1; fill:none" points="654.068,1634 654.068,114.022 "/>
<polyline clip-path="url(#clip602)" style="stroke:#000000; stroke-linecap:round; stroke-linejoin:round; stroke-width:2; stroke-opacity:0.1; fill:none" points="1215.36,1634 1215.36,114.022 "/>
<polyline clip-path="url(#clip602)" style="stroke:#000000; stroke-linecap:round; stroke-linejoin:round; stroke-width:2; stroke-opacity:0.1; fill:none" points="1776.65,1634 1776.65,114.022 "/>
<polyline clip-path="url(#clip602)" style="stroke:#000000; stroke-linecap:round; stroke-linejoin:round; stroke-width:2; stroke-opacity:0.1; fill:none" points="2337.93,1634 2337.93,114.022 "/>
<polyline clip-path="url(#clip602)" style="stroke:#000000; stroke-linecap:round; stroke-linejoin:round; stroke-width:2; stroke-opacity:0.1; fill:none" points="2899.22,1634 2899.22,114.022 "/>
<polyline clip-path="url(#clip600)" style="stroke:#000000; stroke-linecap:round; stroke-linejoin:round; stroke-width:4; stroke-opacity:1; fill:none" points="176.02,1634 3152.76,1634 "/>
<polyline clip-path="url(#clip600)" style="stroke:#000000; stroke-linecap:round; stroke-linejoin:round; stroke-width:4; stroke-opacity:1; fill:none" points="654.068,1634 654.068,1615.11 "/>
<polyline clip-path="url(#clip600)" style="stroke:#000000; stroke-linecap:round; stroke-linejoin:round; stroke-width:4; stroke-opacity:1; fill:none" points="1215.36,1634 1215.36,1615.11 "/>
<polyline clip-path="url(#clip600)" style="stroke:#000000; stroke-linecap:round; stroke-linejoin:round; stroke-width:4; stroke-opacity:1; fill:none" points="1776.65,1634 1776.65,1615.11 "/>
<polyline clip-path="url(#clip600)" style="stroke:#000000; stroke-linecap:round; stroke-linejoin:round; stroke-width:4; stroke-opacity:1; fill:none" points="2337.93,1634 2337.93,1615.11 "/>
<polyline clip-path="url(#clip600)" style="stroke:#000000; stroke-linecap:round; stroke-linejoin:round; stroke-width:4; stroke-opacity:1; fill:none" points="2899.22,1634 2899.22,1615.11 "/>
<path clip-path="url(#clip600)" d="M627.922 1668.24 L650.144 1668.24 L650.144 1670.24 L637.598 1702.8 L632.714 1702.8 L644.519 1672.18 L627.922 1672.18 L627.922 1668.24 Z" fill="#000000" fill-rule="nonzero" fill-opacity="1" /><path clip-path="url(#clip600)" d="M659.311 1668.24 L677.667 1668.24 L677.667 1672.18 L663.593 1672.18 L663.593 1680.65 Q664.612 1680.3 665.63 1680.14 Q666.649 1679.96 667.667 1679.96 Q673.454 1679.96 676.834 1683.13 Q680.214 1686.3 680.214 1691.72 Q680.214 1697.3 676.741 1700.4 Q673.269 1703.48 666.95 1703.48 Q664.774 1703.48 662.505 1703.11 Q660.26 1702.74 657.853 1701.99 L657.853 1697.3 Q659.936 1698.43 662.158 1698.99 Q664.38 1699.54 666.857 1699.54 Q670.862 1699.54 673.2 1697.43 Q675.538 1695.33 675.538 1691.72 Q675.538 1688.11 673.2 1686 Q670.862 1683.89 666.857 1683.89 Q664.982 1683.89 663.107 1684.31 Q661.255 1684.73 659.311 1685.61 L659.311 1668.24 Z" fill="#000000" fill-rule="nonzero" fill-opacity="1" /><path clip-path="url(#clip600)" d="M1174.96 1698.87 L1182.6 1698.87 L1182.6 1672.5 L1174.29 1674.17 L1174.29 1669.91 L1182.56 1668.24 L1187.23 1668.24 L1187.23 1698.87 L1194.87 1698.87 L1194.87 1702.8 L1174.96 1702.8 L1174.96 1698.87 Z" fill="#000000" fill-rule="nonzero" fill-opacity="1" /><path clip-path="url(#clip600)" d="M1214.32 1671.32 Q1210.7 1671.32 1208.88 1674.89 Q1207.07 1678.43 1207.07 1685.56 Q1207.07 1692.67 1208.88 1696.23 Q1210.7 1699.77 1214.32 1699.77 Q1217.95 1699.77 1219.75 1696.23 Q1221.58 1692.67 1221.58 1685.56 Q1221.58 1678.43 1219.75 1674.89 Q1217.95 1671.32 1214.32 1671.32 M1214.32 1667.62 Q1220.13 1667.62 1223.18 1672.23 Q1226.26 1676.81 1226.26 1685.56 Q1226.26 1694.29 1223.18 1698.89 Q1220.13 1703.48 1214.32 1703.48 Q1208.51 1703.48 1205.43 1698.89 Q1202.37 1694.29 1202.37 1685.56 Q1202.37 1676.81 1205.43 1672.23 Q1208.51 1667.62 1214.32 1667.62 Z" fill="#000000" fill-rule="nonzero" fill-opacity="1" /><path clip-path="url(#clip600)" d="M1244.48 1671.32 Q1240.87 1671.32 1239.04 1674.89 Q1237.23 1678.43 1237.23 1685.56 Q1237.23 1692.67 1239.04 1696.23 Q1240.87 1699.77 1244.48 1699.77 Q1248.11 1699.77 1249.92 1696.23 Q1251.75 1692.67 1251.75 1685.56 Q1251.75 1678.43 1249.92 1674.89 Q1248.11 1671.32 1244.48 1671.32 M1244.48 1667.62 Q1250.29 1667.62 1253.34 1672.23 Q1256.42 1676.81 1256.42 1685.56 Q1256.42 1694.29 1253.34 1698.89 Q1250.29 1703.48 1244.48 1703.48 Q1238.67 1703.48 1235.59 1698.89 Q1232.53 1694.29 1232.53 1685.56 Q1232.53 1676.81 1235.59 1672.23 Q1238.67 1667.62 1244.48 1667.62 Z" fill="#000000" fill-rule="nonzero" fill-opacity="1" /><path clip-path="url(#clip600)" d="M1736.75 1698.87 L1744.39 1698.87 L1744.39 1672.5 L1736.08 1674.17 L1736.08 1669.91 L1744.34 1668.24 L1749.02 1668.24 L1749.02 1698.87 L1756.66 1698.87 L1756.66 1702.8 L1736.75 1702.8 L1736.75 1698.87 Z" fill="#000000" fill-rule="nonzero" fill-opacity="1" /><path clip-path="url(#clip600)" d="M1770.13 1698.87 L1786.45 1698.87 L1786.45 1702.8 L1764.5 1702.8 L1764.5 1698.87 Q1767.17 1696.12 1771.75 1691.49 Q1776.36 1686.83 1777.54 1685.49 Q1779.78 1682.97 1780.66 1681.23 Q1781.56 1679.47 1781.56 1677.78 Q1781.56 1675.03 1779.62 1673.29 Q1777.7 1671.56 1774.6 1671.56 Q1772.4 1671.56 1769.94 1672.32 Q1767.51 1673.08 1764.74 1674.63 L1764.74 1669.91 Q1767.56 1668.78 1770.01 1668.2 Q1772.47 1667.62 1774.5 1667.62 Q1779.88 1667.62 1783.07 1670.31 Q1786.26 1672.99 1786.26 1677.48 Q1786.26 1679.61 1785.45 1681.53 Q1784.67 1683.43 1782.56 1686.02 Q1781.98 1686.69 1778.88 1689.91 Q1775.78 1693.11 1770.13 1698.87 Z" fill="#000000" fill-rule="nonzero" fill-opacity="1" /><path clip-path="url(#clip600)" d="M1796.31 1668.24 L1814.67 1668.24 L1814.67 1672.18 L1800.59 1672.18 L1800.59 1680.65 Q1801.61 1680.3 1802.63 1680.14 Q1803.65 1679.96 1804.67 1679.96 Q1810.45 1679.96 1813.83 1683.13 Q1817.21 1686.3 1817.21 1691.72 Q1817.21 1697.3 1813.74 1700.4 Q1810.27 1703.48 1803.95 1703.48 Q1801.77 1703.48 1799.5 1703.11 Q1797.26 1702.74 1794.85 1701.99 L1794.85 1697.3 Q1796.94 1698.43 1799.16 1698.99 Q1801.38 1699.54 1803.86 1699.54 Q1807.86 1699.54 1810.2 1697.43 Q1812.54 1695.33 1812.54 1691.72 Q1812.54 1688.11 1810.2 1686 Q1807.86 1683.89 1803.86 1683.89 Q1801.98 1683.89 1800.11 1684.31 Q1798.25 1684.73 1796.31 1685.61 L1796.31 1668.24 Z" fill="#000000" fill-rule="nonzero" fill-opacity="1" /><path clip-path="url(#clip600)" d="M2297.54 1698.87 L2305.18 1698.87 L2305.18 1672.5 L2296.87 1674.17 L2296.87 1669.91 L2305.13 1668.24 L2309.81 1668.24 L2309.81 1698.87 L2317.45 1698.87 L2317.45 1702.8 L2297.54 1702.8 L2297.54 1698.87 Z" fill="#000000" fill-rule="nonzero" fill-opacity="1" /><path clip-path="url(#clip600)" d="M2326.94 1668.24 L2345.3 1668.24 L2345.3 1672.18 L2331.22 1672.18 L2331.22 1680.65 Q2332.24 1680.3 2333.26 1680.14 Q2334.28 1679.96 2335.3 1679.96 Q2341.08 1679.96 2344.46 1683.13 Q2347.84 1686.3 2347.84 1691.72 Q2347.84 1697.3 2344.37 1700.4 Q2340.9 1703.48 2334.58 1703.48 Q2332.4 1703.48 2330.13 1703.11 Q2327.89 1702.74 2325.48 1701.99 L2325.48 1697.3 Q2327.56 1698.43 2329.79 1698.99 Q2332.01 1699.54 2334.49 1699.54 Q2338.49 1699.54 2340.83 1697.43 Q2343.17 1695.33 2343.17 1691.72 Q2343.17 1688.11 2340.83 1686 Q2338.49 1683.89 2334.49 1683.89 Q2332.61 1683.89 2330.74 1684.31 Q2328.88 1684.73 2326.94 1685.61 L2326.94 1668.24 Z" fill="#000000" fill-rule="nonzero" fill-opacity="1" /><path clip-path="url(#clip600)" d="M2367.06 1671.32 Q2363.44 1671.32 2361.62 1674.89 Q2359.81 1678.43 2359.81 1685.56 Q2359.81 1692.67 2361.62 1696.23 Q2363.44 1699.77 2367.06 1699.77 Q2370.69 1699.77 2372.49 1696.23 Q2374.32 1692.67 2374.32 1685.56 Q2374.32 1678.43 2372.49 1674.89 Q2370.69 1671.32 2367.06 1671.32 M2367.06 1667.62 Q2372.87 1667.62 2375.92 1672.23 Q2379 1676.81 2379 1685.56 Q2379 1694.29 2375.92 1698.89 Q2372.87 1703.48 2367.06 1703.48 Q2361.24 1703.48 2358.17 1698.89 Q2355.11 1694.29 2355.11 1685.56 Q2355.11 1676.81 2358.17 1672.23 Q2361.24 1667.62 2367.06 1667.62 Z" fill="#000000" fill-rule="nonzero" fill-opacity="1" /><path clip-path="url(#clip600)" d="M2859.33 1698.87 L2866.97 1698.87 L2866.97 1672.5 L2858.66 1674.17 L2858.66 1669.91 L2866.92 1668.24 L2871.6 1668.24 L2871.6 1698.87 L2879.24 1698.87 L2879.24 1702.8 L2859.33 1702.8 L2859.33 1698.87 Z" fill="#000000" fill-rule="nonzero" fill-opacity="1" /><path clip-path="url(#clip600)" d="M2887.5 1668.24 L2909.72 1668.24 L2909.72 1670.24 L2897.18 1702.8 L2892.29 1702.8 L2904.1 1672.18 L2887.5 1672.18 L2887.5 1668.24 Z" fill="#000000" fill-rule="nonzero" fill-opacity="1" /><path clip-path="url(#clip600)" d="M2918.89 1668.24 L2937.24 1668.24 L2937.24 1672.18 L2923.17 1672.18 L2923.17 1680.65 Q2924.19 1680.3 2925.21 1680.14 Q2926.23 1679.96 2927.24 1679.96 Q2933.03 1679.96 2936.41 1683.13 Q2939.79 1686.3 2939.79 1691.72 Q2939.79 1697.3 2936.32 1700.4 Q2932.85 1703.48 2926.53 1703.48 Q2924.35 1703.48 2922.08 1703.11 Q2919.84 1702.74 2917.43 1701.99 L2917.43 1697.3 Q2919.51 1698.43 2921.74 1698.99 Q2923.96 1699.54 2926.43 1699.54 Q2930.44 1699.54 2932.78 1697.43 Q2935.11 1695.33 2935.11 1691.72 Q2935.11 1688.11 2932.78 1686 Q2930.44 1683.89 2926.43 1683.89 Q2924.56 1683.89 2922.68 1684.31 Q2920.83 1684.73 2918.89 1685.61 L2918.89 1668.24 Z" fill="#000000" fill-rule="nonzero" fill-opacity="1" /><path clip-path="url(#clip600)" d="M1626.51 1747.71 Q1619.51 1747.71 1615.37 1752.93 Q1611.27 1758.15 1611.27 1767.16 Q1611.27 1776.13 1615.37 1781.35 Q1619.51 1786.57 1626.51 1786.57 Q1633.51 1786.57 1637.59 1781.35 Q1641.69 1776.13 1641.69 1767.16 Q1641.69 1758.15 1637.59 1752.93 Q1633.51 1747.71 1626.51 1747.71 M1626.51 1742.49 Q1636.51 1742.49 1642.49 1749.21 Q1648.47 1755.89 1648.47 1767.16 Q1648.47 1778.39 1642.49 1785.11 Q1636.51 1791.79 1626.51 1791.79 Q1616.49 1791.79 1610.47 1785.11 Q1604.49 1778.42 1604.49 1767.16 Q1604.49 1755.89 1610.47 1749.21 Q1616.49 1742.49 1626.51 1742.49 Z" fill="#000000" fill-rule="nonzero" fill-opacity="1" /><path clip-path="url(#clip600)" d="M1683.87 1773.08 Q1683.87 1766.62 1681.19 1762.96 Q1678.55 1759.26 1673.9 1759.26 Q1669.26 1759.26 1666.58 1762.96 Q1663.94 1766.62 1663.94 1773.08 Q1663.94 1779.54 1666.58 1783.23 Q1669.26 1786.89 1673.9 1786.89 Q1678.55 1786.89 1681.19 1783.23 Q1683.87 1779.54 1683.87 1773.08 M1663.94 1760.63 Q1665.79 1757.45 1668.59 1755.92 Q1671.42 1754.36 1675.34 1754.36 Q1681.83 1754.36 1685.87 1759.52 Q1689.95 1764.67 1689.95 1773.08 Q1689.95 1781.48 1685.87 1786.64 Q1681.83 1791.79 1675.34 1791.79 Q1671.42 1791.79 1668.59 1790.26 Q1665.79 1788.7 1663.94 1785.52 L1663.94 1790.87 L1658.05 1790.87 L1658.05 1741.34 L1663.94 1741.34 L1663.94 1760.63 Z" fill="#000000" fill-rule="nonzero" fill-opacity="1" /><path clip-path="url(#clip600)" d="M1722.38 1756.27 L1722.38 1761.81 Q1719.9 1760.54 1717.22 1759.9 Q1714.55 1759.26 1711.69 1759.26 Q1707.32 1759.26 1705.13 1760.6 Q1702.96 1761.94 1702.96 1764.61 Q1702.96 1766.65 1704.52 1767.82 Q1706.08 1768.97 1710.79 1770.02 L1712.8 1770.47 Q1719.04 1771.8 1721.65 1774.25 Q1724.29 1776.67 1724.29 1781.03 Q1724.29 1786 1720.34 1788.9 Q1716.43 1791.79 1709.55 1791.79 Q1706.69 1791.79 1703.57 1791.22 Q1700.48 1790.68 1697.04 1789.56 L1697.04 1783.52 Q1700.29 1785.2 1703.44 1786.06 Q1706.59 1786.89 1709.68 1786.89 Q1713.82 1786.89 1716.05 1785.49 Q1718.27 1784.06 1718.27 1781.48 Q1718.27 1779.09 1716.65 1777.82 Q1715.06 1776.55 1709.62 1775.37 L1707.58 1774.89 Q1702.14 1773.75 1699.72 1771.39 Q1697.3 1769 1697.3 1764.86 Q1697.3 1759.84 1700.86 1757.1 Q1704.43 1754.36 1710.99 1754.36 Q1714.23 1754.36 1717.1 1754.84 Q1719.96 1755.32 1722.38 1756.27 Z" fill="#000000" fill-rule="nonzero" fill-opacity="1" /><polyline clip-path="url(#clip602)" style="stroke:#000000; stroke-linecap:round; stroke-linejoin:round; stroke-width:2; stroke-opacity:0.1; fill:none" points="176.02,1634 3152.76,1634 "/>
<polyline clip-path="url(#clip602)" style="stroke:#000000; stroke-linecap:round; stroke-linejoin:round; stroke-width:2; stroke-opacity:0.1; fill:none" points="176.02,1416.86 3152.76,1416.86 "/>
<polyline clip-path="url(#clip602)" style="stroke:#000000; stroke-linecap:round; stroke-linejoin:round; stroke-width:2; stroke-opacity:0.1; fill:none" points="176.02,1199.72 3152.76,1199.72 "/>
<polyline clip-path="url(#clip602)" style="stroke:#000000; stroke-linecap:round; stroke-linejoin:round; stroke-width:2; stroke-opacity:0.1; fill:none" points="176.02,982.584 3152.76,982.584 "/>
<polyline clip-path="url(#clip602)" style="stroke:#000000; stroke-linecap:round; stroke-linejoin:round; stroke-width:2; stroke-opacity:0.1; fill:none" points="176.02,765.443 3152.76,765.443 "/>
<polyline clip-path="url(#clip602)" style="stroke:#000000; stroke-linecap:round; stroke-linejoin:round; stroke-width:2; stroke-opacity:0.1; fill:none" points="176.02,548.303 3152.76,548.303 "/>
<polyline clip-path="url(#clip602)" style="stroke:#000000; stroke-linecap:round; stroke-linejoin:round; stroke-width:2; stroke-opacity:0.1; fill:none" points="176.02,331.163 3152.76,331.163 "/>
<polyline clip-path="url(#clip602)" style="stroke:#000000; stroke-linecap:round; stroke-linejoin:round; stroke-width:2; stroke-opacity:0.1; fill:none" points="176.02,114.022 3152.76,114.022 "/>
<polyline clip-path="url(#clip600)" style="stroke:#000000; stroke-linecap:round; stroke-linejoin:round; stroke-width:4; stroke-opacity:1; fill:none" points="176.02,1634 176.02,114.022 "/>
<polyline clip-path="url(#clip600)" style="stroke:#000000; stroke-linecap:round; stroke-linejoin:round; stroke-width:4; stroke-opacity:1; fill:none" points="176.02,1634 194.918,1634 "/>
<polyline clip-path="url(#clip600)" style="stroke:#000000; stroke-linecap:round; stroke-linejoin:round; stroke-width:4; stroke-opacity:1; fill:none" points="176.02,1416.86 194.918,1416.86 "/>
<polyline clip-path="url(#clip600)" style="stroke:#000000; stroke-linecap:round; stroke-linejoin:round; stroke-width:4; stroke-opacity:1; fill:none" points="176.02,1199.72 194.918,1199.72 "/>
<polyline clip-path="url(#clip600)" style="stroke:#000000; stroke-linecap:round; stroke-linejoin:round; stroke-width:4; stroke-opacity:1; fill:none" points="176.02,982.584 194.918,982.584 "/>
<polyline clip-path="url(#clip600)" style="stroke:#000000; stroke-linecap:round; stroke-linejoin:round; stroke-width:4; stroke-opacity:1; fill:none" points="176.02,765.443 194.918,765.443 "/>
<polyline clip-path="url(#clip600)" style="stroke:#000000; stroke-linecap:round; stroke-linejoin:round; stroke-width:4; stroke-opacity:1; fill:none" points="176.02,548.303 194.918,548.303 "/>
<polyline clip-path="url(#clip600)" style="stroke:#000000; stroke-linecap:round; stroke-linejoin:round; stroke-width:4; stroke-opacity:1; fill:none" points="176.02,331.163 194.918,331.163 "/>
<polyline clip-path="url(#clip600)" style="stroke:#000000; stroke-linecap:round; stroke-linejoin:round; stroke-width:4; stroke-opacity:1; fill:none" points="176.02,114.022 194.918,114.022 "/>
<path clip-path="url(#clip600)" d="M116.076 1619.8 Q112.465 1619.8 110.636 1623.37 Q108.83 1626.91 108.83 1634.04 Q108.83 1641.15 110.636 1644.71 Q112.465 1648.25 116.076 1648.25 Q119.71 1648.25 121.516 1644.71 Q123.344 1641.15 123.344 1634.04 Q123.344 1626.91 121.516 1623.37 Q119.71 1619.8 116.076 1619.8 M116.076 1616.1 Q121.886 1616.1 124.942 1620.71 Q128.02 1625.29 128.02 1634.04 Q128.02 1642.77 124.942 1647.37 Q121.886 1651.96 116.076 1651.96 Q110.266 1651.96 107.187 1647.37 Q104.131 1642.77 104.131 1634.04 Q104.131 1625.29 107.187 1620.71 Q110.266 1616.1 116.076 1616.1 Z" fill="#000000" fill-rule="nonzero" fill-opacity="1" /><path clip-path="url(#clip600)" d="M108.113 1430.21 L115.752 1430.21 L115.752 1403.84 L107.442 1405.51 L107.442 1401.25 L115.705 1399.58 L120.381 1399.58 L120.381 1430.21 L128.02 1430.21 L128.02 1434.14 L108.113 1434.14 L108.113 1430.21 Z" fill="#000000" fill-rule="nonzero" fill-opacity="1" /><path clip-path="url(#clip600)" d="M111.701 1213.07 L128.02 1213.07 L128.02 1217 L106.076 1217 L106.076 1213.07 Q108.738 1210.31 113.321 1205.68 Q117.928 1201.03 119.108 1199.69 Q121.354 1197.17 122.233 1195.43 Q123.136 1193.67 123.136 1191.98 Q123.136 1189.23 121.192 1187.49 Q119.27 1185.75 116.168 1185.75 Q113.969 1185.75 111.516 1186.52 Q109.085 1187.28 106.307 1188.83 L106.307 1184.11 Q109.131 1182.98 111.585 1182.4 Q114.039 1181.82 116.076 1181.82 Q121.446 1181.82 124.641 1184.5 Q127.835 1187.19 127.835 1191.68 Q127.835 1193.81 127.025 1195.73 Q126.238 1197.63 124.131 1200.22 Q123.553 1200.89 120.451 1204.11 Q117.349 1207.31 111.701 1213.07 Z" fill="#000000" fill-rule="nonzero" fill-opacity="1" /><path clip-path="url(#clip600)" d="M120.891 981.23 Q124.247 981.947 126.122 984.216 Q128.02 986.484 128.02 989.817 Q128.02 994.933 124.502 997.734 Q120.983 1000.53 114.502 1000.53 Q112.326 1000.53 110.011 1000.1 Q107.719 999.678 105.266 998.822 L105.266 994.308 Q107.21 995.442 109.525 996.021 Q111.84 996.6 114.363 996.6 Q118.761 996.6 121.053 994.864 Q123.367 993.128 123.367 989.817 Q123.367 986.762 121.215 985.049 Q119.085 983.313 115.266 983.313 L111.238 983.313 L111.238 979.47 L115.451 979.47 Q118.9 979.47 120.729 978.105 Q122.557 976.716 122.557 974.123 Q122.557 971.461 120.659 970.049 Q118.784 968.614 115.266 968.614 Q113.344 968.614 111.145 969.031 Q108.946 969.447 106.307 970.327 L106.307 966.16 Q108.969 965.419 111.284 965.049 Q113.622 964.679 115.682 964.679 Q121.006 964.679 124.108 967.109 Q127.21 969.517 127.21 973.637 Q127.21 976.507 125.567 978.498 Q123.923 980.466 120.891 981.23 Z" fill="#000000" fill-rule="nonzero" fill-opacity="1" /><path clip-path="url(#clip600)" d="M118.437 752.237 L106.631 770.686 L118.437 770.686 L118.437 752.237 M117.21 748.163 L123.09 748.163 L123.09 770.686 L128.02 770.686 L128.02 774.575 L123.09 774.575 L123.09 782.723 L118.437 782.723 L118.437 774.575 L102.835 774.575 L102.835 770.061 L117.21 748.163 Z" fill="#000000" fill-rule="nonzero" fill-opacity="1" /><path clip-path="url(#clip600)" d="M107.118 531.023 L125.474 531.023 L125.474 534.958 L111.4 534.958 L111.4 543.43 Q112.418 543.083 113.437 542.921 Q114.455 542.736 115.474 542.736 Q121.261 542.736 124.641 545.907 Q128.02 549.078 128.02 554.495 Q128.02 560.074 124.548 563.176 Q121.076 566.254 114.756 566.254 Q112.58 566.254 110.312 565.884 Q108.067 565.513 105.659 564.773 L105.659 560.074 Q107.743 561.208 109.965 561.763 Q112.187 562.319 114.664 562.319 Q118.668 562.319 121.006 560.213 Q123.344 558.106 123.344 554.495 Q123.344 550.884 121.006 548.777 Q118.668 546.671 114.664 546.671 Q112.789 546.671 110.914 547.088 Q109.062 547.504 107.118 548.384 L107.118 531.023 Z" fill="#000000" fill-rule="nonzero" fill-opacity="1" /><path clip-path="url(#clip600)" d="M116.492 329.299 Q113.344 329.299 111.493 331.452 Q109.664 333.605 109.664 337.355 Q109.664 341.081 111.493 343.257 Q113.344 345.41 116.492 345.41 Q119.641 345.41 121.469 343.257 Q123.321 341.081 123.321 337.355 Q123.321 333.605 121.469 331.452 Q119.641 329.299 116.492 329.299 M125.775 314.646 L125.775 318.906 Q124.016 318.072 122.21 317.632 Q120.428 317.193 118.668 317.193 Q114.039 317.193 111.585 320.318 Q109.155 323.443 108.807 329.762 Q110.173 327.748 112.233 326.683 Q114.293 325.595 116.77 325.595 Q121.979 325.595 124.988 328.767 Q128.02 331.915 128.02 337.355 Q128.02 342.679 124.872 345.896 Q121.724 349.114 116.492 349.114 Q110.497 349.114 107.326 344.53 Q104.155 339.924 104.155 331.197 Q104.155 323.003 108.043 318.142 Q111.932 313.258 118.483 313.258 Q120.242 313.258 122.025 313.605 Q123.83 313.952 125.775 314.646 Z" fill="#000000" fill-rule="nonzero" fill-opacity="1" /><path clip-path="url(#clip600)" d="M105.798 96.7421 L128.02 96.7421 L128.02 98.7329 L115.474 131.302 L110.59 131.302 L122.395 100.677 L105.798 100.677 L105.798 96.7421 Z" fill="#000000" fill-rule="nonzero" fill-opacity="1" /><path clip-path="url(#clip600)" d="M-3.28056 929.873 L3.49892 929.873 Q0.475206 933.119 -1.02074 936.811 Q-2.51668 940.471 -2.51668 944.609 Q-2.51668 952.757 2.4804 957.086 Q7.44565 961.415 16.8669 961.415 Q26.2563 961.415 31.2534 957.086 Q36.2186 952.757 36.2186 944.609 Q36.2186 940.471 34.7227 936.811 Q33.2268 933.119 30.2031 929.873 L36.9189 929.873 Q39.2105 933.246 40.3564 937.034 Q41.5022 940.79 41.5022 944.991 Q41.5022 955.781 34.9137 961.988 Q28.2933 968.194 16.8669 968.194 Q5.40863 968.194 -1.17988 961.988 Q-7.80021 955.781 -7.80021 944.991 Q-7.80021 940.726 -6.65439 936.97 Q-5.54039 933.183 -3.28056 929.873 Z" fill="#000000" fill-rule="nonzero" fill-opacity="1" /><path clip-path="url(#clip600)" d="M9.03708 906.383 Q9.03708 911.094 12.7292 913.831 Q16.3895 916.568 22.787 916.568 Q29.1845 916.568 32.8767 913.863 Q36.5369 911.126 36.5369 906.383 Q36.5369 901.704 32.8448 898.967 Q29.1527 896.23 22.787 896.23 Q16.4531 896.23 12.761 898.967 Q9.03708 901.704 9.03708 906.383 M4.07183 906.383 Q4.07183 898.744 9.03708 894.384 Q14.0023 890.023 22.787 890.023 Q31.5399 890.023 36.5369 894.384 Q41.5022 898.744 41.5022 906.383 Q41.5022 914.054 36.5369 918.414 Q31.5399 922.743 22.787 922.743 Q14.0023 922.743 9.03708 918.414 Q4.07183 914.054 4.07183 906.383 Z" fill="#000000" fill-rule="nonzero" fill-opacity="1" /><path clip-path="url(#clip600)" d="M26.5109 880.92 L4.9312 880.92 L4.9312 875.064 L26.2881 875.064 Q31.3489 875.064 33.8952 873.09 Q36.4096 871.117 36.4096 867.17 Q36.4096 862.428 33.3859 859.691 Q30.3622 856.922 25.1423 856.922 L4.9312 856.922 L4.9312 851.065 L40.5792 851.065 L40.5792 856.922 L35.1046 856.922 Q38.3512 859.054 39.9426 861.887 Q41.5022 864.688 41.5022 868.412 Q41.5022 874.555 37.6828 877.737 Q33.8633 880.92 26.5109 880.92 M4.07183 866.184 L4.07183 866.184 Z" fill="#000000" fill-rule="nonzero" fill-opacity="1" /><path clip-path="url(#clip600)" d="M19.0631 809.37 L40.5792 809.37 L40.5792 815.226 L19.254 815.226 Q14.1933 815.226 11.6788 817.2 Q9.1644 819.173 9.1644 823.12 Q9.1644 827.862 12.1881 830.599 Q15.2118 833.337 20.4317 833.337 L40.5792 833.337 L40.5792 839.225 L4.9312 839.225 L4.9312 833.337 L10.4694 833.337 Q7.25468 831.236 5.66326 828.403 Q4.07183 825.539 4.07183 821.815 Q4.07183 815.672 7.89125 812.521 Q11.6788 809.37 19.0631 809.37 Z" fill="#000000" fill-rule="nonzero" fill-opacity="1" /><path clip-path="url(#clip600)" d="M-5.19027 791.896 L4.9312 791.896 L4.9312 779.833 L9.48268 779.833 L9.48268 791.896 L28.8344 791.896 Q33.1949 791.896 34.4363 790.718 Q35.6776 789.509 35.6776 785.848 L35.6776 779.833 L40.5792 779.833 L40.5792 785.848 Q40.5792 792.628 38.0647 795.206 Q35.5184 797.784 28.8344 797.784 L9.48268 797.784 L9.48268 802.081 L4.9312 802.081 L4.9312 797.784 L-5.19027 797.784 L-5.19027 791.896 Z" fill="#000000" fill-rule="nonzero" fill-opacity="1" /><path clip-path="url(#clip600)" d="M1281.96 18.8205 L1281.96 41.5461 L1292.25 41.5461 Q1297.96 41.5461 1301.08 38.5889 Q1304.2 35.6318 1304.2 30.163 Q1304.2 24.7348 1301.08 21.7777 Q1297.96 18.8205 1292.25 18.8205 L1281.96 18.8205 M1273.78 12.096 L1292.25 12.096 Q1302.42 12.096 1307.6 16.714 Q1312.83 21.2916 1312.83 30.163 Q1312.83 39.1155 1307.6 43.6931 Q1302.42 48.2706 1292.25 48.2706 L1281.96 48.2706 L1281.96 72.576 L1273.78 72.576 L1273.78 12.096 Z" fill="#000000" fill-rule="nonzero" fill-opacity="1" /><path clip-path="url(#clip600)" d="M1323.48 9.54393 L1330.94 9.54393 L1330.94 72.576 L1323.48 72.576 L1323.48 9.54393 Z" fill="#000000" fill-rule="nonzero" fill-opacity="1" /><path clip-path="url(#clip600)" d="M1364.11 32.4315 Q1358.12 32.4315 1354.64 37.1306 Q1351.15 41.7891 1351.15 49.9314 Q1351.15 58.0738 1354.6 62.7728 Q1358.08 67.4314 1364.11 67.4314 Q1370.07 67.4314 1373.55 62.7323 Q1377.04 58.0333 1377.04 49.9314 Q1377.04 41.8701 1373.55 37.1711 Q1370.07 32.4315 1364.11 32.4315 M1364.11 26.1121 Q1373.84 26.1121 1379.39 32.4315 Q1384.94 38.7509 1384.94 49.9314 Q1384.94 61.0714 1379.39 67.4314 Q1373.84 73.7508 1364.11 73.7508 Q1354.35 73.7508 1348.8 67.4314 Q1343.29 61.0714 1343.29 49.9314 Q1343.29 38.7509 1348.8 32.4315 Q1354.35 26.1121 1364.11 26.1121 Z" fill="#000000" fill-rule="nonzero" fill-opacity="1" /><path clip-path="url(#clip600)" d="M1404.66 14.324 L1404.66 27.2059 L1420.02 27.2059 L1420.02 32.9987 L1404.66 32.9987 L1404.66 57.6282 Q1404.66 63.1779 1406.16 64.7578 Q1407.7 66.3376 1412.36 66.3376 L1420.02 66.3376 L1420.02 72.576 L1412.36 72.576 Q1403.73 72.576 1400.45 69.3758 Q1397.17 66.1351 1397.17 57.6282 L1397.17 32.9987 L1391.7 32.9987 L1391.7 27.2059 L1397.17 27.2059 L1397.17 14.324 L1404.66 14.324 Z" fill="#000000" fill-rule="nonzero" fill-opacity="1" /><path clip-path="url(#clip600)" d="M1458.74 28.5427 L1458.74 35.5912 Q1455.58 33.9709 1452.18 33.1607 Q1448.78 32.3505 1445.13 32.3505 Q1439.58 32.3505 1436.79 34.0519 Q1434.03 35.7533 1434.03 39.156 Q1434.03 41.7486 1436.02 43.2475 Q1438 44.7058 1444 46.0426 L1446.55 46.6097 Q1454.49 48.3111 1457.81 51.4303 Q1461.17 54.509 1461.17 60.0587 Q1461.17 66.3781 1456.15 70.0644 Q1451.17 73.7508 1442.42 73.7508 Q1438.77 73.7508 1434.8 73.0216 Q1430.87 72.3329 1426.5 70.9151 L1426.5 63.2184 Q1430.63 65.3654 1434.64 66.4591 Q1438.65 67.5124 1442.58 67.5124 Q1447.85 67.5124 1450.68 65.73 Q1453.52 63.9071 1453.52 60.6258 Q1453.52 57.5877 1451.45 55.9673 Q1449.43 54.3469 1442.5 52.8481 L1439.91 52.2405 Q1432.98 50.7821 1429.9 47.7845 Q1426.82 44.7463 1426.82 39.4801 Q1426.82 33.0797 1431.36 29.5959 Q1435.9 26.1121 1444.24 26.1121 Q1448.37 26.1121 1452.02 26.7198 Q1455.67 27.3274 1458.74 28.5427 Z" fill="#000000" fill-rule="nonzero" fill-opacity="1" /><path clip-path="url(#clip600)" d="M1486.29 12.096 L1493.18 12.096 L1472.11 80.2727 L1465.23 80.2727 L1486.29 12.096 Z" fill="#000000" fill-rule="nonzero" fill-opacity="1" /><path clip-path="url(#clip600)" d="M1542.56 63.9476 L1542.56 47.7034 L1529.19 47.7034 L1529.19 40.9789 L1550.66 40.9789 L1550.66 66.9452 Q1545.92 70.3075 1540.21 72.0494 Q1534.5 73.7508 1528.01 73.7508 Q1513.84 73.7508 1505.82 65.4869 Q1497.84 57.1826 1497.84 42.3968 Q1497.84 27.5705 1505.82 19.3066 Q1513.84 11.0023 1528.01 11.0023 Q1533.93 11.0023 1539.24 12.4606 Q1544.58 13.9189 1549.08 16.7545 L1549.08 25.464 Q1544.54 21.6156 1539.44 19.6712 Q1534.33 17.7268 1528.7 17.7268 Q1517.6 17.7268 1512.01 23.9246 Q1506.46 30.1225 1506.46 42.3968 Q1506.46 54.6305 1512.01 60.8284 Q1517.6 67.0263 1528.7 67.0263 Q1533.04 67.0263 1536.44 66.2971 Q1539.84 65.5274 1542.56 63.9476 Z" fill="#000000" fill-rule="nonzero" fill-opacity="1" /><path clip-path="url(#clip600)" d="M1594.29 44.2197 Q1596.92 45.1109 1599.39 48.0275 Q1601.9 50.9442 1604.41 56.0483 L1612.72 72.576 L1603.93 72.576 L1596.19 57.061 Q1593.19 50.9847 1590.36 48.9997 Q1587.56 47.0148 1582.7 47.0148 L1573.79 47.0148 L1573.79 72.576 L1565.61 72.576 L1565.61 12.096 L1584.08 12.096 Q1594.45 12.096 1599.55 16.4305 Q1604.66 20.7649 1604.66 29.5149 Q1604.66 35.2267 1601.98 38.994 Q1599.35 42.7613 1594.29 44.2197 M1573.79 18.8205 L1573.79 40.2903 L1584.08 40.2903 Q1589.99 40.2903 1592.99 37.5762 Q1596.03 34.8216 1596.03 29.5149 Q1596.03 24.2082 1592.99 21.5346 Q1589.99 18.8205 1584.08 18.8205 L1573.79 18.8205 Z" fill="#000000" fill-rule="nonzero" fill-opacity="1" /><path clip-path="url(#clip600)" d="M1687.01 45.1919 L1687.01 72.576 L1679.56 72.576 L1679.56 45.4349 Q1679.56 38.994 1677.05 35.7938 Q1674.54 32.5936 1669.51 32.5936 Q1663.48 32.5936 1659.99 36.4419 Q1656.51 40.2903 1656.51 46.9338 L1656.51 72.576 L1649.01 72.576 L1649.01 9.54393 L1656.51 9.54393 L1656.51 34.2544 Q1659.18 30.163 1662.79 28.1376 Q1666.43 26.1121 1671.17 26.1121 Q1678.99 26.1121 1683 30.9732 Q1687.01 35.7938 1687.01 45.1919 Z" fill="#000000" fill-rule="nonzero" fill-opacity="1" /><path clip-path="url(#clip600)" d="M1701.88 27.2059 L1709.33 27.2059 L1709.33 72.576 L1701.88 72.576 L1701.88 27.2059 M1701.88 9.54393 L1709.33 9.54393 L1709.33 18.9825 L1701.88 18.9825 L1701.88 9.54393 Z" fill="#000000" fill-rule="nonzero" fill-opacity="1" /><path clip-path="url(#clip600)" d="M1753.85 28.5427 L1753.85 35.5912 Q1750.69 33.9709 1747.29 33.1607 Q1743.89 32.3505 1740.24 32.3505 Q1734.69 32.3505 1731.9 34.0519 Q1729.14 35.7533 1729.14 39.156 Q1729.14 41.7486 1731.13 43.2475 Q1733.11 44.7058 1739.11 46.0426 L1741.66 46.6097 Q1749.6 48.3111 1752.92 51.4303 Q1756.28 54.509 1756.28 60.0587 Q1756.28 66.3781 1751.26 70.0644 Q1746.28 73.7508 1737.53 73.7508 Q1733.88 73.7508 1729.91 73.0216 Q1725.98 72.3329 1721.61 70.9151 L1721.61 63.2184 Q1725.74 65.3654 1729.75 66.4591 Q1733.76 67.5124 1737.69 67.5124 Q1742.96 67.5124 1745.79 65.73 Q1748.63 63.9071 1748.63 60.6258 Q1748.63 57.5877 1746.56 55.9673 Q1744.54 54.3469 1737.61 52.8481 L1735.02 52.2405 Q1728.09 50.7821 1725.01 47.7845 Q1721.93 44.7463 1721.93 39.4801 Q1721.93 33.0797 1726.47 29.5959 Q1731.01 26.1121 1739.35 26.1121 Q1743.48 26.1121 1747.13 26.7198 Q1750.77 27.3274 1753.85 28.5427 Z" fill="#000000" fill-rule="nonzero" fill-opacity="1" /><path clip-path="url(#clip600)" d="M1775.52 14.324 L1775.52 27.2059 L1790.88 27.2059 L1790.88 32.9987 L1775.52 32.9987 L1775.52 57.6282 Q1775.52 63.1779 1777.02 64.7578 Q1778.56 66.3376 1783.22 66.3376 L1790.88 66.3376 L1790.88 72.576 L1783.22 72.576 Q1774.59 72.576 1771.31 69.3758 Q1768.03 66.1351 1768.03 57.6282 L1768.03 32.9987 L1762.56 32.9987 L1762.56 27.2059 L1768.03 27.2059 L1768.03 14.324 L1775.52 14.324 Z" fill="#000000" fill-rule="nonzero" fill-opacity="1" /><path clip-path="url(#clip600)" d="M1818.26 32.4315 Q1812.27 32.4315 1808.78 37.1306 Q1805.3 41.7891 1805.3 49.9314 Q1805.3 58.0738 1808.74 62.7728 Q1812.23 67.4314 1818.26 67.4314 Q1824.22 67.4314 1827.7 62.7323 Q1831.18 58.0333 1831.18 49.9314 Q1831.18 41.8701 1827.7 37.1711 Q1824.22 32.4315 1818.26 32.4315 M1818.26 26.1121 Q1827.98 26.1121 1833.53 32.4315 Q1839.08 38.7509 1839.08 49.9314 Q1839.08 61.0714 1833.53 67.4314 Q1827.98 73.7508 1818.26 73.7508 Q1808.5 73.7508 1802.95 67.4314 Q1797.44 61.0714 1797.44 49.9314 Q1797.44 38.7509 1802.95 32.4315 Q1808.5 26.1121 1818.26 26.1121 Z" fill="#000000" fill-rule="nonzero" fill-opacity="1" /><path clip-path="url(#clip600)" d="M1881.29 49.3643 Q1881.29 41.2625 1877.93 36.8065 Q1874.61 32.3505 1868.57 32.3505 Q1862.58 32.3505 1859.22 36.8065 Q1855.89 41.2625 1855.89 49.3643 Q1855.89 57.4256 1859.22 61.8816 Q1862.58 66.3376 1868.57 66.3376 Q1874.61 66.3376 1877.93 61.8816 Q1881.29 57.4256 1881.29 49.3643 M1888.75 66.9452 Q1888.75 78.5308 1883.6 84.1616 Q1878.46 89.8329 1867.84 89.8329 Q1863.92 89.8329 1860.43 89.2252 Q1856.95 88.6581 1853.67 87.4428 L1853.67 80.1917 Q1856.95 81.9741 1860.15 82.8248 Q1863.35 83.6755 1866.67 83.6755 Q1874 83.6755 1877.65 79.8271 Q1881.29 76.0193 1881.29 68.282 L1881.29 64.5957 Q1878.98 68.6061 1875.38 70.5911 Q1871.77 72.576 1866.75 72.576 Q1858.41 72.576 1853.3 66.2161 Q1848.2 59.8562 1848.2 49.3643 Q1848.2 38.832 1853.3 32.472 Q1858.41 26.1121 1866.75 26.1121 Q1871.77 26.1121 1875.38 28.0971 Q1878.98 30.082 1881.29 34.0924 L1881.29 27.2059 L1888.75 27.2059 L1888.75 66.9452 Z" fill="#000000" fill-rule="nonzero" fill-opacity="1" /><path clip-path="url(#clip600)" d="M1930.39 34.1734 Q1929.13 33.4443 1927.64 33.1202 Q1926.18 32.7556 1924.4 32.7556 Q1918.08 32.7556 1914.67 36.8875 Q1911.31 40.9789 1911.31 48.6757 L1911.31 72.576 L1903.82 72.576 L1903.82 27.2059 L1911.31 27.2059 L1911.31 34.2544 Q1913.66 30.1225 1917.43 28.1376 Q1921.2 26.1121 1926.58 26.1121 Q1927.35 26.1121 1928.28 26.2337 Q1929.22 26.3147 1930.35 26.5172 L1930.39 34.1734 Z" fill="#000000" fill-rule="nonzero" fill-opacity="1" /><path clip-path="url(#clip600)" d="M1958.83 49.7694 Q1949.79 49.7694 1946.31 51.8354 Q1942.83 53.9013 1942.83 58.8839 Q1942.83 62.8538 1945.42 65.2034 Q1948.05 67.5124 1952.55 67.5124 Q1958.75 67.5124 1962.47 63.1374 Q1966.24 58.7219 1966.24 51.4303 L1966.24 49.7694 L1958.83 49.7694 M1973.69 46.6907 L1973.69 72.576 L1966.24 72.576 L1966.24 65.6895 Q1963.69 69.8214 1959.88 71.8063 Q1956.07 73.7508 1950.56 73.7508 Q1943.6 73.7508 1939.46 69.8619 Q1935.37 65.9325 1935.37 59.3701 Q1935.37 51.7138 1940.48 47.825 Q1945.62 43.9361 1955.79 43.9361 L1966.24 43.9361 L1966.24 43.2069 Q1966.24 38.0623 1962.84 35.2672 Q1959.48 32.4315 1953.36 32.4315 Q1949.47 32.4315 1945.78 33.3632 Q1942.1 34.295 1938.7 36.1584 L1938.7 29.2718 Q1942.79 27.692 1946.63 26.9223 Q1950.48 26.1121 1954.13 26.1121 Q1963.97 26.1121 1968.83 31.2163 Q1973.69 36.3204 1973.69 46.6907 Z" fill="#000000" fill-rule="nonzero" fill-opacity="1" /><path clip-path="url(#clip600)" d="M2024.37 35.9153 Q2027.17 30.8922 2031.06 28.5022 Q2034.94 26.1121 2040.21 26.1121 Q2047.3 26.1121 2051.15 31.0947 Q2055 36.0368 2055 45.1919 L2055 72.576 L2047.5 72.576 L2047.5 45.4349 Q2047.5 38.913 2045.19 35.7533 Q2042.88 32.5936 2038.14 32.5936 Q2032.35 32.5936 2028.99 36.4419 Q2025.63 40.2903 2025.63 46.9338 L2025.63 72.576 L2018.13 72.576 L2018.13 45.4349 Q2018.13 38.8725 2015.82 35.7533 Q2013.52 32.5936 2008.69 32.5936 Q2002.98 32.5936 1999.62 36.4824 Q1996.26 40.3308 1996.26 46.9338 L1996.26 72.576 L1988.76 72.576 L1988.76 27.2059 L1996.26 27.2059 L1996.26 34.2544 Q1998.81 30.082 2002.38 28.0971 Q2005.94 26.1121 2010.84 26.1121 Q2015.78 26.1121 2019.23 28.6237 Q2022.71 31.1352 2024.37 35.9153 Z" fill="#000000" fill-rule="nonzero" fill-opacity="1" /><path clip-path="url(#clip602)" d="M339.746 1416.86 L339.746 1634 L519.358 1634 L519.358 1416.86 L339.746 1416.86 L339.746 1416.86  Z" fill="#1e90ff" fill-rule="evenodd" fill-opacity="0.5"/>
<polyline clip-path="url(#clip602)" style="stroke:#000000; stroke-linecap:round; stroke-linejoin:round; stroke-width:4; stroke-opacity:0.5; fill:none" points="339.746,1416.86 339.746,1634 519.358,1634 519.358,1416.86 339.746,1416.86 "/>
<path clip-path="url(#clip602)" d="M564.262 1416.86 L564.262 1634 L743.874 1634 L743.874 1416.86 L564.262 1416.86 L564.262 1416.86  Z" fill="#1e90ff" fill-rule="evenodd" fill-opacity="0.5"/>
<polyline clip-path="url(#clip602)" style="stroke:#000000; stroke-linecap:round; stroke-linejoin:round; stroke-width:4; stroke-opacity:0.5; fill:none" points="564.262,1416.86 564.262,1634 743.874,1634 743.874,1416.86 564.262,1416.86 "/>
<path clip-path="url(#clip602)" d="M788.777 1634 L788.777 1634 L968.39 1634 L968.39 1634 L788.777 1634 L788.777 1634  Z" fill="#1e90ff" fill-rule="evenodd" fill-opacity="0.5"/>
<polyline clip-path="url(#clip602)" style="stroke:#000000; stroke-linecap:round; stroke-linejoin:round; stroke-width:4; stroke-opacity:0.5; fill:none" points="788.777,1634 788.777,1634 968.39,1634 788.777,1634 "/>
<path clip-path="url(#clip602)" d="M1013.29 1199.72 L1013.29 1634 L1192.91 1634 L1192.91 1199.72 L1013.29 1199.72 L1013.29 1199.72  Z" fill="#1e90ff" fill-rule="evenodd" fill-opacity="0.5"/>
<polyline clip-path="url(#clip602)" style="stroke:#000000; stroke-linecap:round; stroke-linejoin:round; stroke-width:4; stroke-opacity:0.5; fill:none" points="1013.29,1199.72 1013.29,1634 1192.91,1634 1192.91,1199.72 1013.29,1199.72 "/>
<path clip-path="url(#clip602)" d="M1237.81 1416.86 L1237.81 1634 L1417.42 1634 L1417.42 1416.86 L1237.81 1416.86 L1237.81 1416.86  Z" fill="#1e90ff" fill-rule="evenodd" fill-opacity="0.5"/>
<polyline clip-path="url(#clip602)" style="stroke:#000000; stroke-linecap:round; stroke-linejoin:round; stroke-width:4; stroke-opacity:0.5; fill:none" points="1237.81,1416.86 1237.81,1634 1417.42,1634 1417.42,1416.86 1237.81,1416.86 "/>
<path clip-path="url(#clip602)" d="M1462.32 1416.86 L1462.32 1634 L1641.94 1634 L1641.94 1416.86 L1462.32 1416.86 L1462.32 1416.86  Z" fill="#1e90ff" fill-rule="evenodd" fill-opacity="0.5"/>
<polyline clip-path="url(#clip602)" style="stroke:#000000; stroke-linecap:round; stroke-linejoin:round; stroke-width:4; stroke-opacity:0.5; fill:none" points="1462.32,1416.86 1462.32,1634 1641.94,1634 1641.94,1416.86 1462.32,1416.86 "/>
<path clip-path="url(#clip602)" d="M1686.84 1634 L1686.84 1634 L1866.45 1634 L1866.45 1634 L1686.84 1634 L1686.84 1634  Z" fill="#1e90ff" fill-rule="evenodd" fill-opacity="0.5"/>
<polyline clip-path="url(#clip602)" style="stroke:#000000; stroke-linecap:round; stroke-linejoin:round; stroke-width:4; stroke-opacity:0.5; fill:none" points="1686.84,1634 1686.84,1634 1866.45,1634 1686.84,1634 "/>
<path clip-path="url(#clip602)" d="M1911.36 1199.72 L1911.36 1634 L2090.97 1634 L2090.97 1199.72 L1911.36 1199.72 L1911.36 1199.72  Z" fill="#1e90ff" fill-rule="evenodd" fill-opacity="0.5"/>
<polyline clip-path="url(#clip602)" style="stroke:#000000; stroke-linecap:round; stroke-linejoin:round; stroke-width:4; stroke-opacity:0.5; fill:none" points="1911.36,1199.72 1911.36,1634 2090.97,1634 2090.97,1199.72 1911.36,1199.72 "/>
<path clip-path="url(#clip602)" d="M2135.87 114.022 L2135.87 1634 L2315.48 1634 L2315.48 114.022 L2135.87 114.022 L2135.87 114.022  Z" fill="#1e90ff" fill-rule="evenodd" fill-opacity="0.5"/>
<polyline clip-path="url(#clip602)" style="stroke:#000000; stroke-linecap:round; stroke-linejoin:round; stroke-width:4; stroke-opacity:0.5; fill:none" points="2135.87,114.022 2135.87,1634 2315.48,1634 2315.48,114.022 2135.87,114.022 "/>
<path clip-path="url(#clip602)" d="M2360.39 982.584 L2360.39 1634 L2540 1634 L2540 982.584 L2360.39 982.584 L2360.39 982.584  Z" fill="#1e90ff" fill-rule="evenodd" fill-opacity="0.5"/>
<polyline clip-path="url(#clip602)" style="stroke:#000000; stroke-linecap:round; stroke-linejoin:round; stroke-width:4; stroke-opacity:0.5; fill:none" points="2360.39,982.584 2360.39,1634 2540,1634 2540,982.584 2360.39,982.584 "/>
<path clip-path="url(#clip602)" d="M2584.9 1634 L2584.9 1634 L2764.51 1634 L2764.51 1634 L2584.9 1634 L2584.9 1634  Z" fill="#1e90ff" fill-rule="evenodd" fill-opacity="0.5"/>
<polyline clip-path="url(#clip602)" style="stroke:#000000; stroke-linecap:round; stroke-linejoin:round; stroke-width:4; stroke-opacity:0.5; fill:none" points="2584.9,1634 2584.9,1634 2764.51,1634 2584.9,1634 "/>
<path clip-path="url(#clip602)" d="M2809.42 1199.72 L2809.42 1634 L2989.03 1634 L2989.03 1199.72 L2809.42 1199.72 L2809.42 1199.72  Z" fill="#1e90ff" fill-rule="evenodd" fill-opacity="0.5"/>
<polyline clip-path="url(#clip602)" style="stroke:#000000; stroke-linecap:round; stroke-linejoin:round; stroke-width:4; stroke-opacity:0.5; fill:none" points="2809.42,1199.72 2809.42,1634 2989.03,1634 2989.03,1199.72 2809.42,1199.72 "/>
<circle clip-path="url(#clip602)" style="fill:#1e90ff; stroke:none; fill-opacity:0" cx="429.552" cy="1416.86" r="2"/>
<circle clip-path="url(#clip602)" style="fill:#1e90ff; stroke:none; fill-opacity:0" cx="654.068" cy="1416.86" r="2"/>
<circle clip-path="url(#clip602)" style="fill:#1e90ff; stroke:none; fill-opacity:0" cx="878.583" cy="1634" r="2"/>
<circle clip-path="url(#clip602)" style="fill:#1e90ff; stroke:none; fill-opacity:0" cx="1103.1" cy="1199.72" r="2"/>
<circle clip-path="url(#clip602)" style="fill:#1e90ff; stroke:none; fill-opacity:0" cx="1327.61" cy="1416.86" r="2"/>
<circle clip-path="url(#clip602)" style="fill:#1e90ff; stroke:none; fill-opacity:0" cx="1552.13" cy="1416.86" r="2"/>
<circle clip-path="url(#clip602)" style="fill:#1e90ff; stroke:none; fill-opacity:0" cx="1776.65" cy="1634" r="2"/>
<circle clip-path="url(#clip602)" style="fill:#1e90ff; stroke:none; fill-opacity:0" cx="2001.16" cy="1199.72" r="2"/>
<circle clip-path="url(#clip602)" style="fill:#1e90ff; stroke:none; fill-opacity:0" cx="2225.68" cy="114.022" r="2"/>
<circle clip-path="url(#clip602)" style="fill:#1e90ff; stroke:none; fill-opacity:0" cx="2450.19" cy="982.584" r="2"/>
<circle clip-path="url(#clip602)" style="fill:#1e90ff; stroke:none; fill-opacity:0" cx="2674.71" cy="1634" r="2"/>
<circle clip-path="url(#clip602)" style="fill:#1e90ff; stroke:none; fill-opacity:0" cx="2899.22" cy="1199.72" r="2"/>
<polyline clip-path="url(#clip602)" style="stroke:#008000; stroke-linecap:round; stroke-linejoin:round; stroke-width:4; stroke-opacity:1; fill:none" stroke-dasharray="16, 10" points="1263.01,3153.99 1263.01,-1405.96 "/>
<polyline clip-path="url(#clip602)" style="stroke:#008000; stroke-linecap:round; stroke-linejoin:round; stroke-width:4; stroke-opacity:1; fill:none" stroke-dasharray="16, 10" points="1941.66,3153.99 1941.66,-1405.96 "/>
<polyline clip-path="url(#clip602)" style="stroke:#008000; stroke-linecap:round; stroke-linejoin:round; stroke-width:4; stroke-opacity:1; fill:none" stroke-dasharray="16, 10" points="2620.32,3153.99 2620.32,-1405.96 "/>
</svg>
