<?xml version="1.0" encoding="utf-8"?>
<svg xmlns="http://www.w3.org/2000/svg" xmlns:xlink="http://www.w3.org/1999/xlink" width="800" height="450" viewBox="0 0 3200 1800">
<defs>
  <clipPath id="clip430">
    <rect x="0" y="0" width="3200" height="1800"/>
  </clipPath>
</defs>
<path clip-path="url(#clip430)" d="M0 1800 L3200 1800 L3200 0 L0 0  Z" fill="#ffffff" fill-rule="evenodd" fill-opacity="1"/>
<defs>
  <clipPath id="clip431">
    <rect x="640" y="0" width="2241" height="1800"/>
  </clipPath>
</defs>
<path clip-path="url(#clip430)" d="M232.964 1634 L3152.76 1634 L3152.76 114.022 L232.964 114.022  Z" fill="#ffffff" fill-rule="evenodd" fill-opacity="1"/>
<defs>
  <clipPath id="clip432">
    <rect x="232" y="114" width="2921" height="1521"/>
  </clipPath>
</defs>
<polyline clip-path="url(#clip432)" style="stroke:#000000; stroke-linecap:round; stroke-linejoin:round; stroke-width:2; stroke-opacity:0.1; fill:none" points="895.499,1634 895.499,114.022 "/>
<polyline clip-path="url(#clip432)" style="stroke:#000000; stroke-linecap:round; stroke-linejoin:round; stroke-width:2; stroke-opacity:0.1; fill:none" points="1620.37,1634 1620.37,114.022 "/>
<polyline clip-path="url(#clip432)" style="stroke:#000000; stroke-linecap:round; stroke-linejoin:round; stroke-width:2; stroke-opacity:0.1; fill:none" points="2345.25,1634 2345.25,114.022 "/>
<polyline clip-path="url(#clip432)" style="stroke:#000000; stroke-linecap:round; stroke-linejoin:round; stroke-width:2; stroke-opacity:0.1; fill:none" points="3070.12,1634 3070.12,114.022 "/>
<polyline clip-path="url(#clip432)" style="stroke:#000000; stroke-linecap:round; stroke-linejoin:round; stroke-width:2; stroke-opacity:0.1; fill:none" points="232.964,1430.17 3152.76,1430.17 "/>
<polyline clip-path="url(#clip432)" style="stroke:#000000; stroke-linecap:round; stroke-linejoin:round; stroke-width:2; stroke-opacity:0.1; fill:none" points="232.964,1162.14 3152.76,1162.14 "/>
<polyline clip-path="url(#clip432)" style="stroke:#000000; stroke-linecap:round; stroke-linejoin:round; stroke-width:2; stroke-opacity:0.1; fill:none" points="232.964,894.116 3152.76,894.116 "/>
<polyline clip-path="url(#clip432)" style="stroke:#000000; stroke-linecap:round; stroke-linejoin:round; stroke-width:2; stroke-opacity:0.1; fill:none" points="232.964,626.088 3152.76,626.088 "/>
<polyline clip-path="url(#clip432)" style="stroke:#000000; stroke-linecap:round; stroke-linejoin:round; stroke-width:2; stroke-opacity:0.1; fill:none" points="232.964,358.061 3152.76,358.061 "/>
<polyline clip-path="url(#clip430)" style="stroke:#000000; stroke-linecap:round; stroke-linejoin:round; stroke-width:4; stroke-opacity:1; fill:none" points="232.964,1634 3152.76,1634 "/>
<polyline clip-path="url(#clip430)" style="stroke:#000000; stroke-linecap:round; stroke-linejoin:round; stroke-width:4; stroke-opacity:1; fill:none" points="895.499,1634 895.499,1615.11 "/>
<polyline clip-path="url(#clip430)" style="stroke:#000000; stroke-linecap:round; stroke-linejoin:round; stroke-width:4; stroke-opacity:1; fill:none" points="1620.37,1634 1620.37,1615.11 "/>
<polyline clip-path="url(#clip430)" style="stroke:#000000; stroke-linecap:round; stroke-linejoin:round; stroke-width:4; stroke-opacity:1; fill:none" points="2345.25,1634 2345.25,1615.11 "/>
<polyline clip-path="url(#clip430)" style="stroke:#000000; stroke-linecap:round; stroke-linejoin:round; stroke-width:4; stroke-opacity:1; fill:none" points="3070.12,1634 3070.12,1615.11 "/>
<path clip-path="url(#clip430)" d="M885.777 1668.24 L904.133 1668.24 L904.133 1672.18 L890.059 1672.18 L890.059 1680.65 Q891.078 1680.3 892.096 1680.14 Q893.115 1679.96 894.133 1679.96 Q899.92 1679.96 903.3 1683.13 Q906.679 1686.3 906.679 1691.72 Q906.679 1697.3 903.207 1700.4 Q899.735 1703.48 893.416 1703.48 Q891.24 1703.48 888.971 1703.11 Q886.726 1702.74 884.318 1701.99 L884.318 1697.3 Q886.402 1698.43 888.624 1698.99 Q890.846 1699.54 893.323 1699.54 Q897.328 1699.54 899.666 1697.43 Q902.004 1695.33 902.004 1691.72 Q902.004 1688.11 899.666 1686 Q897.328 1683.89 893.323 1683.89 Q891.448 1683.89 889.573 1684.31 Q887.721 1684.73 885.777 1685.61 L885.777 1668.24 Z" fill="#000000" fill-rule="nonzero" fill-opacity="1" /><path clip-path="url(#clip430)" d="M1595.06 1698.87 L1602.7 1698.87 L1602.7 1672.5 L1594.39 1674.17 L1594.39 1669.91 L1602.65 1668.24 L1607.33 1668.24 L1607.33 1698.87 L1614.97 1698.87 L1614.97 1702.8 L1595.06 1702.8 L1595.06 1698.87 Z" fill="#000000" fill-rule="nonzero" fill-opacity="1" /><path clip-path="url(#clip430)" d="M1634.41 1671.32 Q1630.8 1671.32 1628.97 1674.89 Q1627.17 1678.43 1627.17 1685.56 Q1627.17 1692.67 1628.97 1696.23 Q1630.8 1699.77 1634.41 1699.77 Q1638.05 1699.77 1639.85 1696.23 Q1641.68 1692.67 1641.68 1685.56 Q1641.68 1678.43 1639.85 1674.89 Q1638.05 1671.32 1634.41 1671.32 M1634.41 1667.62 Q1640.22 1667.62 1643.28 1672.23 Q1646.36 1676.81 1646.36 1685.56 Q1646.36 1694.29 1643.28 1698.89 Q1640.22 1703.48 1634.41 1703.48 Q1628.6 1703.48 1625.52 1698.89 Q1622.47 1694.29 1622.47 1685.56 Q1622.47 1676.81 1625.52 1672.23 Q1628.6 1667.62 1634.41 1667.62 Z" fill="#000000" fill-rule="nonzero" fill-opacity="1" /><path clip-path="url(#clip430)" d="M2320.43 1698.87 L2328.07 1698.87 L2328.07 1672.5 L2319.76 1674.17 L2319.76 1669.91 L2328.02 1668.24 L2332.7 1668.24 L2332.7 1698.87 L2340.34 1698.87 L2340.34 1702.8 L2320.43 1702.8 L2320.43 1698.87 Z" fill="#000000" fill-rule="nonzero" fill-opacity="1" /><path clip-path="url(#clip430)" d="M2349.83 1668.24 L2368.19 1668.24 L2368.19 1672.18 L2354.11 1672.18 L2354.11 1680.65 Q2355.13 1680.3 2356.15 1680.14 Q2357.17 1679.96 2358.19 1679.96 Q2363.97 1679.96 2367.35 1683.13 Q2370.73 1686.3 2370.73 1691.72 Q2370.73 1697.3 2367.26 1700.4 Q2363.79 1703.48 2357.47 1703.48 Q2355.29 1703.48 2353.02 1703.11 Q2350.78 1702.74 2348.37 1701.99 L2348.37 1697.3 Q2350.45 1698.43 2352.68 1698.99 Q2354.9 1699.54 2357.38 1699.54 Q2361.38 1699.54 2363.72 1697.43 Q2366.06 1695.33 2366.06 1691.72 Q2366.06 1688.11 2363.72 1686 Q2361.38 1683.89 2357.38 1683.89 Q2355.5 1683.89 2353.63 1684.31 Q2351.77 1684.73 2349.83 1685.61 L2349.83 1668.24 Z" fill="#000000" fill-rule="nonzero" fill-opacity="1" /><path clip-path="url(#clip430)" d="M3048.89 1698.87 L3065.21 1698.87 L3065.21 1702.8 L3043.27 1702.8 L3043.27 1698.87 Q3045.93 1696.12 3050.51 1691.49 Q3055.12 1686.83 3056.3 1685.49 Q3058.55 1682.97 3059.43 1681.23 Q3060.33 1679.47 3060.33 1677.78 Q3060.33 1675.03 3058.38 1673.29 Q3056.46 1671.56 3053.36 1671.56 Q3051.16 1671.56 3048.71 1672.32 Q3046.28 1673.08 3043.5 1674.63 L3043.5 1669.91 Q3046.32 1668.78 3048.78 1668.2 Q3051.23 1667.62 3053.27 1667.62 Q3058.64 1667.62 3061.83 1670.31 Q3065.03 1672.99 3065.03 1677.48 Q3065.03 1679.61 3064.22 1681.53 Q3063.43 1683.43 3061.32 1686.02 Q3060.75 1686.69 3057.64 1689.91 Q3054.54 1693.11 3048.89 1698.87 Z" fill="#000000" fill-rule="nonzero" fill-opacity="1" /><path clip-path="url(#clip430)" d="M3085.03 1671.32 Q3081.42 1671.32 3079.59 1674.89 Q3077.78 1678.43 3077.78 1685.56 Q3077.78 1692.67 3079.59 1696.23 Q3081.42 1699.77 3085.03 1699.77 Q3088.66 1699.77 3090.47 1696.23 Q3092.3 1692.67 3092.3 1685.56 Q3092.3 1678.43 3090.47 1674.89 Q3088.66 1671.32 3085.03 1671.32 M3085.03 1667.62 Q3090.84 1667.62 3093.89 1672.23 Q3096.97 1676.81 3096.97 1685.56 Q3096.97 1694.29 3093.89 1698.89 Q3090.84 1703.48 3085.03 1703.48 Q3079.22 1703.48 3076.14 1698.89 Q3073.08 1694.29 3073.08 1685.56 Q3073.08 1676.81 3076.14 1672.23 Q3079.22 1667.62 3085.03 1667.62 Z" fill="#000000" fill-rule="nonzero" fill-opacity="1" /><path clip-path="url(#clip430)" d="M1614.74 1743.35 L1654.94 1743.35 L1654.94 1748.76 L1638.07 1748.76 L1638.07 1790.87 L1631.61 1790.87 L1631.61 1748.76 L1614.74 1748.76 L1614.74 1743.35 Z" fill="#000000" fill-rule="nonzero" fill-opacity="1" /><path clip-path="url(#clip430)" d="M1658.88 1755.22 L1664.74 1755.22 L1664.74 1790.87 L1658.88 1790.87 L1658.88 1755.22 M1658.88 1741.34 L1664.74 1741.34 L1664.74 1748.76 L1658.88 1748.76 L1658.88 1741.34 Z" fill="#000000" fill-rule="nonzero" fill-opacity="1" /><path clip-path="url(#clip430)" d="M1704.75 1762.06 Q1706.94 1758.12 1710 1756.24 Q1713.06 1754.36 1717.19 1754.36 Q1722.76 1754.36 1725.79 1758.28 Q1728.81 1762.16 1728.81 1769.35 L1728.81 1790.87 L1722.92 1790.87 L1722.92 1769.54 Q1722.92 1764.42 1721.11 1761.94 Q1719.29 1759.45 1715.57 1759.45 Q1711.02 1759.45 1708.38 1762.48 Q1705.73 1765.5 1705.73 1770.72 L1705.73 1790.87 L1699.85 1790.87 L1699.85 1769.54 Q1699.85 1764.39 1698.03 1761.94 Q1696.22 1759.45 1692.43 1759.45 Q1687.94 1759.45 1685.3 1762.51 Q1682.66 1765.53 1682.66 1770.72 L1682.66 1790.87 L1676.77 1790.87 L1676.77 1755.22 L1682.66 1755.22 L1682.66 1760.76 Q1684.66 1757.48 1687.47 1755.92 Q1690.27 1754.36 1694.12 1754.36 Q1698 1754.36 1700.71 1756.33 Q1703.44 1758.31 1704.75 1762.06 Z" fill="#000000" fill-rule="nonzero" fill-opacity="1" /><path clip-path="url(#clip430)" d="M1770.98 1771.58 L1770.98 1774.45 L1744.06 1774.45 Q1744.44 1780.49 1747.68 1783.68 Q1750.96 1786.83 1756.79 1786.83 Q1760.16 1786.83 1763.31 1786 Q1766.5 1785.17 1769.61 1783.52 L1769.61 1789.05 Q1766.46 1790.39 1763.15 1791.09 Q1759.84 1791.79 1756.44 1791.79 Q1747.91 1791.79 1742.91 1786.83 Q1737.95 1781.86 1737.95 1773.39 Q1737.95 1764.64 1742.66 1759.52 Q1747.4 1754.36 1755.42 1754.36 Q1762.61 1754.36 1766.78 1759.01 Q1770.98 1763.62 1770.98 1771.58 M1765.13 1769.86 Q1765.06 1765.06 1762.42 1762.19 Q1759.81 1759.33 1755.48 1759.33 Q1750.58 1759.33 1747.62 1762.1 Q1744.69 1764.86 1744.25 1769.89 L1765.13 1769.86 Z" fill="#000000" fill-rule="nonzero" fill-opacity="1" /><polyline clip-path="url(#clip430)" style="stroke:#000000; stroke-linecap:round; stroke-linejoin:round; stroke-width:4; stroke-opacity:1; fill:none" points="232.964,1634 232.964,114.022 "/>
<polyline clip-path="url(#clip430)" style="stroke:#000000; stroke-linecap:round; stroke-linejoin:round; stroke-width:4; stroke-opacity:1; fill:none" points="232.964,1430.17 251.862,1430.17 "/>
<polyline clip-path="url(#clip430)" style="stroke:#000000; stroke-linecap:round; stroke-linejoin:round; stroke-width:4; stroke-opacity:1; fill:none" points="232.964,1162.14 251.862,1162.14 "/>
<polyline clip-path="url(#clip430)" style="stroke:#000000; stroke-linecap:round; stroke-linejoin:round; stroke-width:4; stroke-opacity:1; fill:none" points="232.964,894.116 251.862,894.116 "/>
<polyline clip-path="url(#clip430)" style="stroke:#000000; stroke-linecap:round; stroke-linejoin:round; stroke-width:4; stroke-opacity:1; fill:none" points="232.964,626.088 251.862,626.088 "/>
<polyline clip-path="url(#clip430)" style="stroke:#000000; stroke-linecap:round; stroke-linejoin:round; stroke-width:4; stroke-opacity:1; fill:none" points="232.964,358.061 251.862,358.061 "/>
<path clip-path="url(#clip430)" d="M142.858 1431.04 Q139.525 1431.04 137.603 1432.82 Q135.705 1434.6 135.705 1437.73 Q135.705 1440.85 137.603 1442.64 Q139.525 1444.42 142.858 1444.42 Q146.191 1444.42 148.113 1442.64 Q150.034 1440.83 150.034 1437.73 Q150.034 1434.6 148.113 1432.82 Q146.215 1431.04 142.858 1431.04 M138.182 1429.05 Q135.173 1428.31 133.483 1426.25 Q131.816 1424.19 131.816 1421.22 Q131.816 1417.08 134.756 1414.67 Q137.719 1412.27 142.858 1412.27 Q148.02 1412.27 150.96 1414.67 Q153.9 1417.08 153.9 1421.22 Q153.9 1424.19 152.21 1426.25 Q150.543 1428.31 147.557 1429.05 Q150.937 1429.83 152.812 1432.13 Q154.71 1434.42 154.71 1437.73 Q154.71 1442.75 151.631 1445.44 Q148.576 1448.12 142.858 1448.12 Q137.141 1448.12 134.062 1445.44 Q131.006 1442.75 131.006 1437.73 Q131.006 1434.42 132.904 1432.13 Q134.803 1429.83 138.182 1429.05 M136.469 1421.66 Q136.469 1424.35 138.136 1425.85 Q139.826 1427.36 142.858 1427.36 Q145.867 1427.36 147.557 1425.85 Q149.27 1424.35 149.27 1421.66 Q149.27 1418.98 147.557 1417.47 Q145.867 1415.97 142.858 1415.97 Q139.826 1415.97 138.136 1417.47 Q136.469 1418.98 136.469 1421.66 Z" fill="#000000" fill-rule="nonzero" fill-opacity="1" /><path clip-path="url(#clip430)" d="M173.02 1415.97 Q169.409 1415.97 167.58 1419.53 Q165.775 1423.08 165.775 1430.2 Q165.775 1437.31 167.58 1440.88 Q169.409 1444.42 173.02 1444.42 Q176.654 1444.42 178.46 1440.88 Q180.288 1437.31 180.288 1430.2 Q180.288 1423.08 178.46 1419.53 Q176.654 1415.97 173.02 1415.97 M173.02 1412.27 Q178.83 1412.27 181.886 1416.87 Q184.964 1421.45 184.964 1430.2 Q184.964 1438.93 181.886 1443.54 Q178.83 1448.12 173.02 1448.12 Q167.21 1448.12 164.131 1443.54 Q161.076 1438.93 161.076 1430.2 Q161.076 1421.45 164.131 1416.87 Q167.21 1412.27 173.02 1412.27 Z" fill="#000000" fill-rule="nonzero" fill-opacity="1" /><path clip-path="url(#clip430)" d="M103.506 1175.49 L111.145 1175.49 L111.145 1149.12 L102.835 1150.79 L102.835 1146.53 L111.099 1144.86 L115.775 1144.86 L115.775 1175.49 L123.414 1175.49 L123.414 1179.42 L103.506 1179.42 L103.506 1175.49 Z" fill="#000000" fill-rule="nonzero" fill-opacity="1" /><path clip-path="url(#clip430)" d="M142.858 1147.94 Q139.247 1147.94 137.418 1151.51 Q135.613 1155.05 135.613 1162.18 Q135.613 1169.28 137.418 1172.85 Q139.247 1176.39 142.858 1176.39 Q146.492 1176.39 148.298 1172.85 Q150.127 1169.28 150.127 1162.18 Q150.127 1155.05 148.298 1151.51 Q146.492 1147.94 142.858 1147.94 M142.858 1144.24 Q148.668 1144.24 151.724 1148.84 Q154.802 1153.43 154.802 1162.18 Q154.802 1170.9 151.724 1175.51 Q148.668 1180.09 142.858 1180.09 Q137.048 1180.09 133.969 1175.51 Q130.914 1170.9 130.914 1162.18 Q130.914 1153.43 133.969 1148.84 Q137.048 1144.24 142.858 1144.24 Z" fill="#000000" fill-rule="nonzero" fill-opacity="1" /><path clip-path="url(#clip430)" d="M173.02 1147.94 Q169.409 1147.94 167.58 1151.51 Q165.775 1155.05 165.775 1162.18 Q165.775 1169.28 167.58 1172.85 Q169.409 1176.39 173.02 1176.39 Q176.654 1176.39 178.46 1172.85 Q180.288 1169.28 180.288 1162.18 Q180.288 1155.05 178.46 1151.51 Q176.654 1147.94 173.02 1147.94 M173.02 1144.24 Q178.83 1144.24 181.886 1148.84 Q184.964 1153.43 184.964 1162.18 Q184.964 1170.9 181.886 1175.51 Q178.83 1180.09 173.02 1180.09 Q167.21 1180.09 164.131 1175.51 Q161.076 1170.9 161.076 1162.18 Q161.076 1153.43 164.131 1148.84 Q167.21 1144.24 173.02 1144.24 Z" fill="#000000" fill-rule="nonzero" fill-opacity="1" /><path clip-path="url(#clip430)" d="M103.506 907.46 L111.145 907.46 L111.145 881.095 L102.835 882.761 L102.835 878.502 L111.099 876.836 L115.775 876.836 L115.775 907.46 L123.414 907.46 L123.414 911.396 L103.506 911.396 L103.506 907.46 Z" fill="#000000" fill-rule="nonzero" fill-opacity="1" /><path clip-path="url(#clip430)" d="M136.886 907.46 L153.205 907.46 L153.205 911.396 L131.261 911.396 L131.261 907.46 Q133.923 904.706 138.506 900.076 Q143.113 895.423 144.293 894.081 Q146.539 891.558 147.418 889.822 Q148.321 888.062 148.321 886.373 Q148.321 883.618 146.377 881.882 Q144.455 880.146 141.353 880.146 Q139.154 880.146 136.701 880.91 Q134.27 881.673 131.492 883.224 L131.492 878.502 Q134.316 877.368 136.77 876.789 Q139.224 876.211 141.261 876.211 Q146.631 876.211 149.826 878.896 Q153.02 881.581 153.02 886.072 Q153.02 888.201 152.21 890.122 Q151.423 892.021 149.316 894.613 Q148.738 895.285 145.636 898.502 Q142.534 901.697 136.886 907.46 Z" fill="#000000" fill-rule="nonzero" fill-opacity="1" /><path clip-path="url(#clip430)" d="M173.02 879.914 Q169.409 879.914 167.58 883.479 Q165.775 887.021 165.775 894.15 Q165.775 901.257 167.58 904.821 Q169.409 908.363 173.02 908.363 Q176.654 908.363 178.46 904.821 Q180.288 901.257 180.288 894.15 Q180.288 887.021 178.46 883.479 Q176.654 879.914 173.02 879.914 M173.02 876.211 Q178.83 876.211 181.886 880.817 Q184.964 885.4 184.964 894.15 Q184.964 902.877 181.886 907.484 Q178.83 912.067 173.02 912.067 Q167.21 912.067 164.131 907.484 Q161.076 902.877 161.076 894.15 Q161.076 885.4 164.131 880.817 Q167.21 876.211 173.02 876.211 Z" fill="#000000" fill-rule="nonzero" fill-opacity="1" /><path clip-path="url(#clip430)" d="M103.506 639.433 L111.145 639.433 L111.145 613.067 L102.835 614.734 L102.835 610.475 L111.099 608.808 L115.775 608.808 L115.775 639.433 L123.414 639.433 L123.414 643.368 L103.506 643.368 L103.506 639.433 Z" fill="#000000" fill-rule="nonzero" fill-opacity="1" /><path clip-path="url(#clip430)" d="M145.705 612.882 L133.9 631.331 L145.705 631.331 L145.705 612.882 M144.478 608.808 L150.358 608.808 L150.358 631.331 L155.289 631.331 L155.289 635.22 L150.358 635.22 L150.358 643.368 L145.705 643.368 L145.705 635.22 L130.104 635.22 L130.104 630.706 L144.478 608.808 Z" fill="#000000" fill-rule="nonzero" fill-opacity="1" /><path clip-path="url(#clip430)" d="M173.02 611.887 Q169.409 611.887 167.58 615.452 Q165.775 618.993 165.775 626.123 Q165.775 633.229 167.58 636.794 Q169.409 640.336 173.02 640.336 Q176.654 640.336 178.46 636.794 Q180.288 633.229 180.288 626.123 Q180.288 618.993 178.46 615.452 Q176.654 611.887 173.02 611.887 M173.02 608.183 Q178.83 608.183 181.886 612.79 Q184.964 617.373 184.964 626.123 Q184.964 634.85 181.886 639.456 Q178.83 644.04 173.02 644.04 Q167.21 644.04 164.131 639.456 Q161.076 634.85 161.076 626.123 Q161.076 617.373 164.131 612.79 Q167.21 608.183 173.02 608.183 Z" fill="#000000" fill-rule="nonzero" fill-opacity="1" /><path clip-path="url(#clip430)" d="M103.506 371.406 L111.145 371.406 L111.145 345.04 L102.835 346.707 L102.835 342.448 L111.099 340.781 L115.775 340.781 L115.775 371.406 L123.414 371.406 L123.414 375.341 L103.506 375.341 L103.506 371.406 Z" fill="#000000" fill-rule="nonzero" fill-opacity="1" /><path clip-path="url(#clip430)" d="M143.437 356.198 Q140.289 356.198 138.437 358.35 Q136.608 360.503 136.608 364.253 Q136.608 367.98 138.437 370.156 Q140.289 372.309 143.437 372.309 Q146.585 372.309 148.414 370.156 Q150.265 367.98 150.265 364.253 Q150.265 360.503 148.414 358.35 Q146.585 356.198 143.437 356.198 M152.719 341.545 L152.719 345.804 Q150.96 344.971 149.154 344.531 Q147.372 344.091 145.613 344.091 Q140.983 344.091 138.529 347.216 Q136.099 350.341 135.752 356.661 Q137.117 354.647 139.178 353.582 Q141.238 352.494 143.715 352.494 Q148.923 352.494 151.932 355.665 Q154.965 358.813 154.965 364.253 Q154.965 369.577 151.816 372.795 Q148.668 376.012 143.437 376.012 Q137.441 376.012 134.27 371.429 Q131.099 366.822 131.099 358.096 Q131.099 349.901 134.988 345.04 Q138.877 340.156 145.428 340.156 Q147.187 340.156 148.969 340.503 Q150.775 340.85 152.719 341.545 Z" fill="#000000" fill-rule="nonzero" fill-opacity="1" /><path clip-path="url(#clip430)" d="M173.02 343.86 Q169.409 343.86 167.58 347.424 Q165.775 350.966 165.775 358.096 Q165.775 365.202 167.58 368.767 Q169.409 372.309 173.02 372.309 Q176.654 372.309 178.46 368.767 Q180.288 365.202 180.288 358.096 Q180.288 350.966 178.46 347.424 Q176.654 343.86 173.02 343.86 M173.02 340.156 Q178.83 340.156 181.886 344.762 Q184.964 349.346 184.964 358.096 Q184.964 366.822 181.886 371.429 Q178.83 376.012 173.02 376.012 Q167.21 376.012 164.131 371.429 Q161.076 366.822 161.076 358.096 Q161.076 349.346 164.131 344.762 Q167.21 340.156 173.02 340.156 Z" fill="#000000" fill-rule="nonzero" fill-opacity="1" /><path clip-path="url(#clip430)" d="M-2.58033 1064.01 Q-2.58033 1071.02 2.63955 1075.15 Q7.85943 1079.26 16.8669 1079.26 Q25.8425 1079.26 31.0624 1075.15 Q36.2823 1071.02 36.2823 1064.01 Q36.2823 1057.01 31.0624 1052.94 Q25.8425 1048.83 16.8669 1048.83 Q7.85943 1048.83 2.63955 1052.94 Q-2.58033 1057.01 -2.58033 1064.01 M-7.80021 1064.01 Q-7.80021 1054.02 -1.08439 1048.04 Q5.5996 1042.05 16.8669 1042.05 Q28.1024 1042.05 34.8182 1048.04 Q41.5022 1054.02 41.5022 1064.01 Q41.5022 1074.04 34.8182 1080.06 Q28.1342 1086.04 16.8669 1086.04 Q5.5996 1086.04 -1.08439 1080.06 Q-7.80021 1074.04 -7.80021 1064.01 Z" fill="#000000" fill-rule="nonzero" fill-opacity="1" /><path clip-path="url(#clip430)" d="M22.787 1006.66 Q16.3258 1006.66 12.6655 1009.33 Q8.97342 1011.97 8.97342 1016.62 Q8.97342 1021.27 12.6655 1023.94 Q16.3258 1026.58 22.787 1026.58 Q29.2482 1026.58 32.9403 1023.94 Q36.6006 1021.27 36.6006 1016.62 Q36.6006 1011.97 32.9403 1009.33 Q29.2482 1006.66 22.787 1006.66 M10.3421 1026.58 Q7.1592 1024.74 5.63143 1021.94 Q4.07183 1019.1 4.07183 1015.19 Q4.07183 1008.7 9.22805 1004.65 Q14.3843 1000.58 22.787 1000.58 Q31.1897 1000.58 36.346 1004.65 Q41.5022 1008.7 41.5022 1015.19 Q41.5022 1019.1 39.9744 1021.94 Q38.4148 1024.74 35.232 1026.58 L40.5792 1026.58 L40.5792 1032.47 L-8.94604 1032.47 L-8.94604 1026.58 L10.3421 1026.58 Z" fill="#000000" fill-rule="nonzero" fill-opacity="1" /><path clip-path="url(#clip430)" d="M5.98154 968.146 L11.5197 968.146 Q10.2466 970.629 9.60999 973.303 Q8.97342 975.976 8.97342 978.841 Q8.97342 983.201 10.3102 985.397 Q11.647 987.562 14.3206 987.562 Q16.3576 987.562 17.5353 986.002 Q18.6811 984.443 19.7315 979.732 L20.1771 977.727 Q21.5139 971.488 23.9647 968.878 Q26.3836 966.237 30.7441 966.237 Q35.7094 966.237 38.6058 970.183 Q41.5022 974.098 41.5022 980.973 Q41.5022 983.838 40.9293 986.957 Q40.3882 990.044 39.2742 993.482 L33.2268 993.482 Q34.9137 990.235 35.773 987.084 Q36.6006 983.933 36.6006 980.846 Q36.6006 976.708 35.2001 974.48 Q33.7679 972.252 31.1897 972.252 Q28.8026 972.252 27.5295 973.876 Q26.2563 975.467 25.0787 980.91 L24.6012 982.947 Q23.4554 988.389 21.1001 990.808 Q18.713 993.227 14.5752 993.227 Q9.54634 993.227 6.80908 989.662 Q4.07183 986.098 4.07183 979.541 Q4.07183 976.294 4.54926 973.43 Q5.02669 970.565 5.98154 968.146 Z" fill="#000000" fill-rule="nonzero" fill-opacity="1" /><path clip-path="url(#clip430)" d="M21.2911 926.419 L24.1556 926.419 L24.1556 953.346 Q30.2031 952.964 33.3859 949.718 Q36.5369 946.439 36.5369 940.615 Q36.5369 937.241 35.7094 934.09 Q34.8819 930.907 33.2268 927.788 L38.7649 927.788 Q40.1017 930.939 40.802 934.249 Q41.5022 937.559 41.5022 940.965 Q41.5022 949.495 36.5369 954.492 Q31.5717 959.457 23.1053 959.457 Q14.3524 959.457 9.22805 954.747 Q4.07183 950.004 4.07183 941.983 Q4.07183 934.79 8.7188 930.621 Q13.3339 926.419 21.2911 926.419 M19.5723 932.276 Q14.7662 932.339 11.9016 934.981 Q9.03708 937.591 9.03708 941.92 Q9.03708 946.821 11.8062 949.781 Q14.5752 952.71 19.6042 953.155 L19.5723 932.276 Z" fill="#000000" fill-rule="nonzero" fill-opacity="1" /><path clip-path="url(#clip430)" d="M10.4057 896.15 Q9.83279 897.137 9.57817 898.315 Q9.29171 899.46 9.29171 900.861 Q9.29171 905.826 12.5382 908.5 Q15.7529 911.141 21.8003 911.141 L40.5792 911.141 L40.5792 917.03 L4.9312 917.03 L4.9312 911.141 L10.4694 911.141 Q7.22285 909.295 5.66326 906.335 Q4.07183 903.375 4.07183 899.142 Q4.07183 898.537 4.16732 897.805 Q4.23097 897.073 4.39012 896.182 L10.4057 896.15 Z" fill="#000000" fill-rule="nonzero" fill-opacity="1" /><path clip-path="url(#clip430)" d="M4.9312 894.209 L4.9312 888.002 L34.85 876.862 L4.9312 865.722 L4.9312 859.516 L40.5792 872.884 L40.5792 880.841 L4.9312 894.209 Z" fill="#000000" fill-rule="nonzero" fill-opacity="1" /><path clip-path="url(#clip430)" d="M22.6597 835.23 Q22.6597 842.328 24.2829 845.065 Q25.9062 847.803 29.8211 847.803 Q32.9403 847.803 34.7864 845.766 Q36.6006 843.697 36.6006 840.164 Q36.6006 835.294 33.1631 832.366 Q29.6938 829.406 23.9647 829.406 L22.6597 829.406 L22.6597 835.23 M20.2407 823.549 L40.5792 823.549 L40.5792 829.406 L35.1683 829.406 Q38.4148 831.411 39.9744 834.403 Q41.5022 837.395 41.5022 841.723 Q41.5022 847.198 38.4466 850.444 Q35.3593 853.659 30.2031 853.659 Q24.1875 853.659 21.1319 849.649 Q18.0764 845.607 18.0764 837.618 L18.0764 829.406 L17.5035 829.406 Q13.4612 829.406 11.2651 832.079 Q9.03708 834.721 9.03708 839.527 Q9.03708 842.583 9.76914 845.479 Q10.5012 848.376 11.9653 851.049 L6.55446 851.049 Q5.31314 847.835 4.7084 844.811 Q4.07183 841.787 4.07183 838.923 Q4.07183 831.188 8.08223 827.369 Q12.0926 823.549 20.2407 823.549 Z" fill="#000000" fill-rule="nonzero" fill-opacity="1" /><path clip-path="url(#clip430)" d="M-5.19027 805.694 L4.9312 805.694 L4.9312 793.631 L9.48268 793.631 L9.48268 805.694 L28.8344 805.694 Q33.1949 805.694 34.4363 804.516 Q35.6776 803.306 35.6776 799.646 L35.6776 793.631 L40.5792 793.631 L40.5792 799.646 Q40.5792 806.426 38.0647 809.004 Q35.5184 811.582 28.8344 811.582 L9.48268 811.582 L9.48268 815.879 L4.9312 815.879 L4.9312 811.582 L-5.19027 811.582 L-5.19027 805.694 Z" fill="#000000" fill-rule="nonzero" fill-opacity="1" /><path clip-path="url(#clip430)" d="M4.9312 785.928 L4.9312 780.072 L40.5792 780.072 L40.5792 785.928 L4.9312 785.928 M-8.94604 785.928 L-8.94604 780.072 L-1.52999 780.072 L-1.52999 785.928 L-8.94604 785.928 Z" fill="#000000" fill-rule="nonzero" fill-opacity="1" /><path clip-path="url(#clip430)" d="M9.03708 754.004 Q9.03708 758.715 12.7292 761.452 Q16.3895 764.189 22.787 764.189 Q29.1845 764.189 32.8767 761.484 Q36.5369 758.746 36.5369 754.004 Q36.5369 749.325 32.8448 746.588 Q29.1527 743.851 22.787 743.851 Q16.4531 743.851 12.761 746.588 Q9.03708 749.325 9.03708 754.004 M4.07183 754.004 Q4.07183 746.365 9.03708 742.005 Q14.0023 737.644 22.787 737.644 Q31.5399 737.644 36.5369 742.005 Q41.5022 746.365 41.5022 754.004 Q41.5022 761.675 36.5369 766.035 Q31.5399 770.364 22.787 770.364 Q14.0023 770.364 9.03708 766.035 Q4.07183 761.675 4.07183 754.004 Z" fill="#000000" fill-rule="nonzero" fill-opacity="1" /><path clip-path="url(#clip430)" d="M19.0631 698.304 L40.5792 698.304 L40.5792 704.161 L19.254 704.161 Q14.1933 704.161 11.6788 706.134 Q9.1644 708.107 9.1644 712.054 Q9.1644 716.796 12.1881 719.534 Q15.2118 722.271 20.4317 722.271 L40.5792 722.271 L40.5792 728.159 L4.9312 728.159 L4.9312 722.271 L10.4694 722.271 Q7.25468 720.17 5.66326 717.338 Q4.07183 714.473 4.07183 710.749 Q4.07183 704.606 7.89125 701.455 Q11.6788 698.304 19.0631 698.304 Z" fill="#000000" fill-rule="nonzero" fill-opacity="1" /><path clip-path="url(#clip430)" d="M5.98154 663.897 L11.5197 663.897 Q10.2466 666.38 9.60999 669.054 Q8.97342 671.727 8.97342 674.592 Q8.97342 678.952 10.3102 681.148 Q11.647 683.313 14.3206 683.313 Q16.3576 683.313 17.5353 681.753 Q18.6811 680.194 19.7315 675.483 L20.1771 673.478 Q21.5139 667.239 23.9647 664.629 Q26.3836 661.988 30.7441 661.988 Q35.7094 661.988 38.6058 665.934 Q41.5022 669.849 41.5022 676.724 Q41.5022 679.589 40.9293 682.708 Q40.3882 685.795 39.2742 689.233 L33.2268 689.233 Q34.9137 685.986 35.773 682.835 Q36.6006 679.684 36.6006 676.597 Q36.6006 672.459 35.2001 670.231 Q33.7679 668.003 31.1897 668.003 Q28.8026 668.003 27.5295 669.627 Q26.2563 671.218 25.0787 676.661 L24.6012 678.698 Q23.4554 684.14 21.1001 686.559 Q18.713 688.978 14.5752 688.978 Q9.54634 688.978 6.80908 685.414 Q4.07183 681.849 4.07183 675.292 Q4.07183 672.046 4.54926 669.181 Q5.02669 666.316 5.98154 663.897 Z" fill="#000000" fill-rule="nonzero" fill-opacity="1" /><path clip-path="url(#clip430)" d="M1151.72 18.8205 L1151.72 41.5461 L1162.01 41.5461 Q1167.72 41.5461 1170.84 38.5889 Q1173.96 35.6318 1173.96 30.163 Q1173.96 24.7348 1170.84 21.7777 Q1167.72 18.8205 1162.01 18.8205 L1151.72 18.8205 M1143.54 12.096 L1162.01 12.096 Q1172.18 12.096 1177.36 16.714 Q1182.59 21.2916 1182.59 30.163 Q1182.59 39.1155 1177.36 43.6931 Q1172.18 48.2706 1162.01 48.2706 L1151.72 48.2706 L1151.72 72.576 L1143.54 72.576 L1143.54 12.096 Z" fill="#000000" fill-rule="nonzero" fill-opacity="1" /><path clip-path="url(#clip430)" d="M1193.24 9.54393 L1200.7 9.54393 L1200.7 72.576 L1193.24 72.576 L1193.24 9.54393 Z" fill="#000000" fill-rule="nonzero" fill-opacity="1" /><path clip-path="url(#clip430)" d="M1233.87 32.4315 Q1227.88 32.4315 1224.39 37.1306 Q1220.91 41.7891 1220.91 49.9314 Q1220.91 58.0738 1224.35 62.7728 Q1227.84 67.4314 1233.87 67.4314 Q1239.83 67.4314 1243.31 62.7323 Q1246.79 58.0333 1246.79 49.9314 Q1246.79 41.8701 1243.31 37.1711 Q1239.83 32.4315 1233.87 32.4315 M1233.87 26.1121 Q1243.59 26.1121 1249.14 32.4315 Q1254.69 38.7509 1254.69 49.9314 Q1254.69 61.0714 1249.14 67.4314 Q1243.59 73.7508 1233.87 73.7508 Q1224.11 73.7508 1218.56 67.4314 Q1213.05 61.0714 1213.05 49.9314 Q1213.05 38.7509 1218.56 32.4315 Q1224.11 26.1121 1233.87 26.1121 Z" fill="#000000" fill-rule="nonzero" fill-opacity="1" /><path clip-path="url(#clip430)" d="M1274.42 14.324 L1274.42 27.2059 L1289.77 27.2059 L1289.77 32.9987 L1274.42 32.9987 L1274.42 57.6282 Q1274.42 63.1779 1275.92 64.7578 Q1277.46 66.3376 1282.12 66.3376 L1289.77 66.3376 L1289.77 72.576 L1282.12 72.576 Q1273.49 72.576 1270.21 69.3758 Q1266.93 66.1351 1266.93 57.6282 L1266.93 32.9987 L1261.46 32.9987 L1261.46 27.2059 L1266.93 27.2059 L1266.93 14.324 L1274.42 14.324 Z" fill="#000000" fill-rule="nonzero" fill-opacity="1" /><path clip-path="url(#clip430)" d="M1328.5 28.5427 L1328.5 35.5912 Q1325.34 33.9709 1321.94 33.1607 Q1318.54 32.3505 1314.89 32.3505 Q1309.34 32.3505 1306.55 34.0519 Q1303.79 35.7533 1303.79 39.156 Q1303.79 41.7486 1305.78 43.2475 Q1307.76 44.7058 1313.76 46.0426 L1316.31 46.6097 Q1324.25 48.3111 1327.57 51.4303 Q1330.93 54.509 1330.93 60.0587 Q1330.93 66.3781 1325.91 70.0644 Q1320.93 73.7508 1312.18 73.7508 Q1308.53 73.7508 1304.56 73.0216 Q1300.63 72.3329 1296.26 70.9151 L1296.26 63.2184 Q1300.39 65.3654 1304.4 66.4591 Q1308.41 67.5124 1312.34 67.5124 Q1317.6 67.5124 1320.44 65.73 Q1323.28 63.9071 1323.28 60.6258 Q1323.28 57.5877 1321.21 55.9673 Q1319.18 54.3469 1312.26 52.8481 L1309.66 52.2405 Q1302.74 50.7821 1299.66 47.7845 Q1296.58 44.7463 1296.58 39.4801 Q1296.58 33.0797 1301.12 29.5959 Q1305.65 26.1121 1314 26.1121 Q1318.13 26.1121 1321.78 26.7198 Q1325.42 27.3274 1328.5 28.5427 Z" fill="#000000" fill-rule="nonzero" fill-opacity="1" /><path clip-path="url(#clip430)" d="M1356.05 12.096 L1362.93 12.096 L1341.87 80.2727 L1334.98 80.2727 L1356.05 12.096 Z" fill="#000000" fill-rule="nonzero" fill-opacity="1" /><path clip-path="url(#clip430)" d="M1412.31 63.9476 L1412.31 47.7034 L1398.95 47.7034 L1398.95 40.9789 L1420.42 40.9789 L1420.42 66.9452 Q1415.68 70.3075 1409.97 72.0494 Q1404.25 73.7508 1397.77 73.7508 Q1383.59 73.7508 1375.57 65.4869 Q1367.59 57.1826 1367.59 42.3968 Q1367.59 27.5705 1375.57 19.3066 Q1383.59 11.0023 1397.77 11.0023 Q1403.69 11.0023 1408.99 12.4606 Q1414.34 13.9189 1418.84 16.7545 L1418.84 25.464 Q1414.3 21.6156 1409.2 19.6712 Q1404.09 17.7268 1398.46 17.7268 Q1387.36 17.7268 1381.77 23.9246 Q1376.22 30.1225 1376.22 42.3968 Q1376.22 54.6305 1381.77 60.8284 Q1387.36 67.0263 1398.46 67.0263 Q1402.8 67.0263 1406.2 66.2971 Q1409.6 65.5274 1412.31 63.9476 Z" fill="#000000" fill-rule="nonzero" fill-opacity="1" /><path clip-path="url(#clip430)" d="M1464.04 44.2197 Q1466.68 45.1109 1469.15 48.0275 Q1471.66 50.9442 1474.17 56.0483 L1482.48 72.576 L1473.69 72.576 L1465.95 57.061 Q1462.95 50.9847 1460.12 48.9997 Q1457.32 47.0148 1452.46 47.0148 L1443.55 47.0148 L1443.55 72.576 L1435.36 72.576 L1435.36 12.096 L1453.84 12.096 Q1464.21 12.096 1469.31 16.4305 Q1474.42 20.7649 1474.42 29.5149 Q1474.42 35.2267 1471.74 38.994 Q1469.11 42.7613 1464.04 44.2197 M1443.55 18.8205 L1443.55 40.2903 L1453.84 40.2903 Q1459.75 40.2903 1462.75 37.5762 Q1465.79 34.8216 1465.79 29.5149 Q1465.79 24.2082 1462.75 21.5346 Q1459.75 18.8205 1453.84 18.8205 L1443.55 18.8205 Z" fill="#000000" fill-rule="nonzero" fill-opacity="1" /><path clip-path="url(#clip430)" d="M1519.38 12.096 L1527.56 12.096 L1527.56 65.6895 L1557.01 65.6895 L1557.01 72.576 L1519.38 72.576 L1519.38 12.096 Z" fill="#000000" fill-rule="nonzero" fill-opacity="1" /><path clip-path="url(#clip430)" d="M1565.28 27.2059 L1572.73 27.2059 L1572.73 72.576 L1565.28 72.576 L1565.28 27.2059 M1565.28 9.54393 L1572.73 9.54393 L1572.73 18.9825 L1565.28 18.9825 L1565.28 9.54393 Z" fill="#000000" fill-rule="nonzero" fill-opacity="1" /><path clip-path="url(#clip430)" d="M1626.04 45.1919 L1626.04 72.576 L1618.59 72.576 L1618.59 45.4349 Q1618.59 38.994 1616.08 35.7938 Q1613.56 32.5936 1608.54 32.5936 Q1602.5 32.5936 1599.02 36.4419 Q1595.54 40.2903 1595.54 46.9338 L1595.54 72.576 L1588.04 72.576 L1588.04 27.2059 L1595.54 27.2059 L1595.54 34.2544 Q1598.21 30.163 1601.82 28.1376 Q1605.46 26.1121 1610.2 26.1121 Q1618.02 26.1121 1622.03 30.9732 Q1626.04 35.7938 1626.04 45.1919 Z" fill="#000000" fill-rule="nonzero" fill-opacity="1" /><path clip-path="url(#clip430)" d="M1679.71 48.0275 L1679.71 51.6733 L1645.44 51.6733 Q1645.93 59.3701 1650.06 63.421 Q1654.23 67.4314 1661.65 67.4314 Q1665.94 67.4314 1669.95 66.3781 Q1674 65.3249 1677.97 63.2184 L1677.97 70.267 Q1673.96 71.9684 1669.75 72.8596 Q1665.54 73.7508 1661.2 73.7508 Q1650.35 73.7508 1643.99 67.4314 Q1637.67 61.1119 1637.67 50.3365 Q1637.67 39.1965 1643.66 32.6746 Q1649.7 26.1121 1659.91 26.1121 Q1669.06 26.1121 1674.37 32.0264 Q1679.71 37.9003 1679.71 48.0275 M1672.26 45.84 Q1672.18 39.7232 1668.82 36.0774 Q1665.5 32.4315 1659.99 32.4315 Q1653.75 32.4315 1649.98 35.9558 Q1646.25 39.4801 1645.69 45.8805 L1672.26 45.84 Z" fill="#000000" fill-rule="nonzero" fill-opacity="1" /><path clip-path="url(#clip430)" d="M1712.57 49.7694 Q1703.53 49.7694 1700.05 51.8354 Q1696.57 53.9013 1696.57 58.8839 Q1696.57 62.8538 1699.16 65.2034 Q1701.79 67.5124 1706.29 67.5124 Q1712.49 67.5124 1716.21 63.1374 Q1719.98 58.7219 1719.98 51.4303 L1719.98 49.7694 L1712.57 49.7694 M1727.43 46.6907 L1727.43 72.576 L1719.98 72.576 L1719.98 65.6895 Q1717.43 69.8214 1713.62 71.8063 Q1709.81 73.7508 1704.3 73.7508 Q1697.34 73.7508 1693.2 69.8619 Q1689.11 65.9325 1689.11 59.3701 Q1689.11 51.7138 1694.22 47.825 Q1699.36 43.9361 1709.53 43.9361 L1719.98 43.9361 L1719.98 43.2069 Q1719.98 38.0623 1716.58 35.2672 Q1713.22 32.4315 1707.1 32.4315 Q1703.21 32.4315 1699.52 33.3632 Q1695.84 34.295 1692.43 36.1584 L1692.43 29.2718 Q1696.53 27.692 1700.37 26.9223 Q1704.22 26.1121 1707.87 26.1121 Q1717.71 26.1121 1722.57 31.2163 Q1727.43 36.3204 1727.43 46.6907 Z" fill="#000000" fill-rule="nonzero" fill-opacity="1" /><path clip-path="url(#clip430)" d="M1769.08 34.1734 Q1767.82 33.4443 1766.32 33.1202 Q1764.86 32.7556 1763.08 32.7556 Q1756.76 32.7556 1753.36 36.8875 Q1750 40.9789 1750 48.6757 L1750 72.576 L1742.5 72.576 L1742.5 27.2059 L1750 27.2059 L1750 34.2544 Q1752.35 30.1225 1756.11 28.1376 Q1759.88 26.1121 1765.27 26.1121 Q1766.04 26.1121 1766.97 26.2337 Q1767.9 26.3147 1769.04 26.5172 L1769.08 34.1734 Z" fill="#000000" fill-rule="nonzero" fill-opacity="1" /><path clip-path="url(#clip430)" d="M1832.27 44.2197 Q1834.91 45.1109 1837.38 48.0275 Q1839.89 50.9442 1842.4 56.0483 L1850.7 72.576 L1841.91 72.576 L1834.18 57.061 Q1831.18 50.9847 1828.34 48.9997 Q1825.55 47.0148 1820.69 47.0148 L1811.77 47.0148 L1811.77 72.576 L1803.59 72.576 L1803.59 12.096 L1822.06 12.096 Q1832.43 12.096 1837.54 16.4305 Q1842.64 20.7649 1842.64 29.5149 Q1842.64 35.2267 1839.97 38.994 Q1837.34 42.7613 1832.27 44.2197 M1811.77 18.8205 L1811.77 40.2903 L1822.06 40.2903 Q1827.98 40.2903 1830.98 37.5762 Q1834.01 34.8216 1834.01 29.5149 Q1834.01 24.2082 1830.98 21.5346 Q1827.98 18.8205 1822.06 18.8205 L1811.77 18.8205 Z" fill="#000000" fill-rule="nonzero" fill-opacity="1" /><path clip-path="url(#clip430)" d="M1895.99 48.0275 L1895.99 51.6733 L1861.72 51.6733 Q1862.21 59.3701 1866.34 63.421 Q1870.51 67.4314 1877.93 67.4314 Q1882.22 67.4314 1886.23 66.3781 Q1890.28 65.3249 1894.25 63.2184 L1894.25 70.267 Q1890.24 71.9684 1886.03 72.8596 Q1881.81 73.7508 1877.48 73.7508 Q1866.62 73.7508 1860.26 67.4314 Q1853.94 61.1119 1853.94 50.3365 Q1853.94 39.1965 1859.94 32.6746 Q1865.98 26.1121 1876.18 26.1121 Q1885.34 26.1121 1890.65 32.0264 Q1895.99 37.9003 1895.99 48.0275 M1888.54 45.84 Q1888.46 39.7232 1885.1 36.0774 Q1881.77 32.4315 1876.26 32.4315 Q1870.03 32.4315 1866.26 35.9558 Q1862.53 39.4801 1861.97 45.8805 L1888.54 45.84 Z" fill="#000000" fill-rule="nonzero" fill-opacity="1" /><path clip-path="url(#clip430)" d="M1938.08 49.3643 Q1938.08 41.2625 1934.72 36.8065 Q1931.4 32.3505 1925.36 32.3505 Q1919.37 32.3505 1916 36.8065 Q1912.68 41.2625 1912.68 49.3643 Q1912.68 57.4256 1916 61.8816 Q1919.37 66.3376 1925.36 66.3376 Q1931.4 66.3376 1934.72 61.8816 Q1938.08 57.4256 1938.08 49.3643 M1945.54 66.9452 Q1945.54 78.5308 1940.39 84.1616 Q1935.25 89.8329 1924.63 89.8329 Q1920.7 89.8329 1917.22 89.2252 Q1913.74 88.6581 1910.45 87.4428 L1910.45 80.1917 Q1913.74 81.9741 1916.94 82.8248 Q1920.14 83.6755 1923.46 83.6755 Q1930.79 83.6755 1934.44 79.8271 Q1938.08 76.0193 1938.08 68.282 L1938.08 64.5957 Q1935.77 68.6061 1932.17 70.5911 Q1928.56 72.576 1923.54 72.576 Q1915.19 72.576 1910.09 66.2161 Q1904.99 59.8562 1904.99 49.3643 Q1904.99 38.832 1910.09 32.472 Q1915.19 26.1121 1923.54 26.1121 Q1928.56 26.1121 1932.17 28.0971 Q1935.77 30.082 1938.08 34.0924 L1938.08 27.2059 L1945.54 27.2059 L1945.54 66.9452 Z" fill="#000000" fill-rule="nonzero" fill-opacity="1" /><path clip-path="url(#clip430)" d="M1987.18 34.1734 Q1985.92 33.4443 1984.42 33.1202 Q1982.97 32.7556 1981.18 32.7556 Q1974.86 32.7556 1971.46 36.8875 Q1968.1 40.9789 1968.1 48.6757 L1968.1 72.576 L1960.6 72.576 L1960.6 27.2059 L1968.1 27.2059 L1968.1 34.2544 Q1970.45 30.1225 1974.22 28.1376 Q1977.98 26.1121 1983.37 26.1121 Q1984.14 26.1121 1985.07 26.2337 Q1986 26.3147 1987.14 26.5172 L1987.18 34.1734 Z" fill="#000000" fill-rule="nonzero" fill-opacity="1" /><path clip-path="url(#clip430)" d="M2031.98 48.0275 L2031.98 51.6733 L1997.71 51.6733 Q1998.2 59.3701 2002.33 63.421 Q2006.5 67.4314 2013.91 67.4314 Q2018.21 67.4314 2022.22 66.3781 Q2026.27 65.3249 2030.24 63.2184 L2030.24 70.267 Q2026.23 71.9684 2022.02 72.8596 Q2017.8 73.7508 2013.47 73.7508 Q2002.61 73.7508 1996.25 67.4314 Q1989.93 61.1119 1989.93 50.3365 Q1989.93 39.1965 1995.93 32.6746 Q2001.96 26.1121 2012.17 26.1121 Q2021.33 26.1121 2026.63 32.0264 Q2031.98 37.9003 2031.98 48.0275 M2024.53 45.84 Q2024.45 39.7232 2021.08 36.0774 Q2017.76 32.4315 2012.25 32.4315 Q2006.02 32.4315 2002.25 35.9558 Q1998.52 39.4801 1997.95 45.8805 L2024.53 45.84 Z" fill="#000000" fill-rule="nonzero" fill-opacity="1" /><path clip-path="url(#clip430)" d="M2073.14 28.5427 L2073.14 35.5912 Q2069.98 33.9709 2066.58 33.1607 Q2063.17 32.3505 2059.53 32.3505 Q2053.98 32.3505 2051.18 34.0519 Q2048.43 35.7533 2048.43 39.156 Q2048.43 41.7486 2050.41 43.2475 Q2052.4 44.7058 2058.39 46.0426 L2060.95 46.6097 Q2068.89 48.3111 2072.21 51.4303 Q2075.57 54.509 2075.57 60.0587 Q2075.57 66.3781 2070.55 70.0644 Q2065.56 73.7508 2056.81 73.7508 Q2053.17 73.7508 2049.2 73.0216 Q2045.27 72.3329 2040.89 70.9151 L2040.89 63.2184 Q2045.03 65.3654 2049.04 66.4591 Q2053.05 67.5124 2056.98 67.5124 Q2062.24 67.5124 2065.08 65.73 Q2067.91 63.9071 2067.91 60.6258 Q2067.91 57.5877 2065.85 55.9673 Q2063.82 54.3469 2056.89 52.8481 L2054.3 52.2405 Q2047.38 50.7821 2044.3 47.7845 Q2041.22 44.7463 2041.22 39.4801 Q2041.22 33.0797 2045.75 29.5959 Q2050.29 26.1121 2058.64 26.1121 Q2062.77 26.1121 2066.41 26.7198 Q2070.06 27.3274 2073.14 28.5427 Z" fill="#000000" fill-rule="nonzero" fill-opacity="1" /><path clip-path="url(#clip430)" d="M2116.36 28.5427 L2116.36 35.5912 Q2113.2 33.9709 2109.8 33.1607 Q2106.4 32.3505 2102.75 32.3505 Q2097.2 32.3505 2094.41 34.0519 Q2091.65 35.7533 2091.65 39.156 Q2091.65 41.7486 2093.64 43.2475 Q2095.62 44.7058 2101.62 46.0426 L2104.17 46.6097 Q2112.11 48.3111 2115.43 51.4303 Q2118.79 54.509 2118.79 60.0587 Q2118.79 66.3781 2113.77 70.0644 Q2108.79 73.7508 2100.04 73.7508 Q2096.39 73.7508 2092.42 73.0216 Q2088.49 72.3329 2084.12 70.9151 L2084.12 63.2184 Q2088.25 65.3654 2092.26 66.4591 Q2096.27 67.5124 2100.2 67.5124 Q2105.46 67.5124 2108.3 65.73 Q2111.14 63.9071 2111.14 60.6258 Q2111.14 57.5877 2109.07 55.9673 Q2107.04 54.3469 2100.12 52.8481 L2097.53 52.2405 Q2090.6 50.7821 2087.52 47.7845 Q2084.44 44.7463 2084.44 39.4801 Q2084.44 33.0797 2088.98 29.5959 Q2093.51 26.1121 2101.86 26.1121 Q2105.99 26.1121 2109.64 26.7198 Q2113.28 27.3274 2116.36 28.5427 Z" fill="#000000" fill-rule="nonzero" fill-opacity="1" /><path clip-path="url(#clip430)" d="M2130.66 27.2059 L2138.12 27.2059 L2138.12 72.576 L2130.66 72.576 L2130.66 27.2059 M2130.66 9.54393 L2138.12 9.54393 L2138.12 18.9825 L2130.66 18.9825 L2130.66 9.54393 Z" fill="#000000" fill-rule="nonzero" fill-opacity="1" /><path clip-path="url(#clip430)" d="M2171.29 32.4315 Q2165.3 32.4315 2161.81 37.1306 Q2158.33 41.7891 2158.33 49.9314 Q2158.33 58.0738 2161.77 62.7728 Q2165.26 67.4314 2171.29 67.4314 Q2177.25 67.4314 2180.73 62.7323 Q2184.21 58.0333 2184.21 49.9314 Q2184.21 41.8701 2180.73 37.1711 Q2177.25 32.4315 2171.29 32.4315 M2171.29 26.1121 Q2181.01 26.1121 2186.56 32.4315 Q2192.11 38.7509 2192.11 49.9314 Q2192.11 61.0714 2186.56 67.4314 Q2181.01 73.7508 2171.29 73.7508 Q2161.53 73.7508 2155.98 67.4314 Q2150.47 61.0714 2150.47 49.9314 Q2150.47 38.7509 2155.98 32.4315 Q2161.53 26.1121 2171.29 26.1121 Z" fill="#000000" fill-rule="nonzero" fill-opacity="1" /><path clip-path="url(#clip430)" d="M2242.18 45.1919 L2242.18 72.576 L2234.73 72.576 L2234.73 45.4349 Q2234.73 38.994 2232.22 35.7938 Q2229.71 32.5936 2224.68 32.5936 Q2218.65 32.5936 2215.16 36.4419 Q2211.68 40.2903 2211.68 46.9338 L2211.68 72.576 L2204.19 72.576 L2204.19 27.2059 L2211.68 27.2059 L2211.68 34.2544 Q2214.35 30.163 2217.96 28.1376 Q2221.6 26.1121 2226.34 26.1121 Q2234.16 26.1121 2238.17 30.9732 Q2242.18 35.7938 2242.18 45.1919 Z" fill="#000000" fill-rule="nonzero" fill-opacity="1" /><circle clip-path="url(#clip432)" cx="315.6" cy="572.483" r="14.4" fill="#1e90ff" fill-rule="evenodd" fill-opacity="0.5" stroke="#000000" stroke-opacity="0.5" stroke-width="3.6"/>
<circle clip-path="url(#clip432)" cx="460.575" cy="478.673" r="14.4" fill="#1e90ff" fill-rule="evenodd" fill-opacity="0.5" stroke="#000000" stroke-opacity="0.5" stroke-width="3.6"/>
<circle clip-path="url(#clip432)" cx="605.549" cy="398.265" r="14.4" fill="#1e90ff" fill-rule="evenodd" fill-opacity="0.5" stroke="#000000" stroke-opacity="0.5" stroke-width="3.6"/>
<circle clip-path="url(#clip432)" cx="750.524" cy="224.047" r="14.4" fill="#1e90ff" fill-rule="evenodd" fill-opacity="0.5" stroke="#000000" stroke-opacity="0.5" stroke-width="3.6"/>
<circle clip-path="url(#clip432)" cx="895.499" cy="465.272" r="14.4" fill="#1e90ff" fill-rule="evenodd" fill-opacity="0.5" stroke="#000000" stroke-opacity="0.5" stroke-width="3.6"/>
<circle clip-path="url(#clip432)" cx="1040.47" cy="559.081" r="14.4" fill="#1e90ff" fill-rule="evenodd" fill-opacity="0.5" stroke="#000000" stroke-opacity="0.5" stroke-width="3.6"/>
<circle clip-path="url(#clip432)" cx="1185.45" cy="157.041" r="14.4" fill="#1e90ff" fill-rule="evenodd" fill-opacity="0.5" stroke="#000000" stroke-opacity="0.5" stroke-width="3.6"/>
<circle clip-path="url(#clip432)" cx="1330.42" cy="505.476" r="14.4" fill="#1e90ff" fill-rule="evenodd" fill-opacity="0.5" stroke="#000000" stroke-opacity="0.5" stroke-width="3.6"/>
<circle clip-path="url(#clip432)" cx="1475.4" cy="1175.54" r="14.4" fill="#1e90ff" fill-rule="evenodd" fill-opacity="0.5" stroke="#000000" stroke-opacity="0.5" stroke-width="3.6"/>
<circle clip-path="url(#clip432)" cx="1620.37" cy="987.925" r="14.4" fill="#1e90ff" fill-rule="evenodd" fill-opacity="0.5" stroke="#000000" stroke-opacity="0.5" stroke-width="3.6"/>
<circle clip-path="url(#clip432)" cx="1765.35" cy="626.088" r="14.4" fill="#1e90ff" fill-rule="evenodd" fill-opacity="0.5" stroke="#000000" stroke-opacity="0.5" stroke-width="3.6"/>
<circle clip-path="url(#clip432)" cx="1910.32" cy="1135.34" r="14.4" fill="#1e90ff" fill-rule="evenodd" fill-opacity="0.5" stroke="#000000" stroke-opacity="0.5" stroke-width="3.6"/>
<circle clip-path="url(#clip432)" cx="2055.3" cy="693.095" r="14.4" fill="#1e90ff" fill-rule="evenodd" fill-opacity="0.5" stroke="#000000" stroke-opacity="0.5" stroke-width="3.6"/>
<circle clip-path="url(#clip432)" cx="2200.27" cy="505.476" r="14.4" fill="#1e90ff" fill-rule="evenodd" fill-opacity="0.5" stroke="#000000" stroke-opacity="0.5" stroke-width="3.6"/>
<circle clip-path="url(#clip432)" cx="2345.25" cy="505.476" r="14.4" fill="#1e90ff" fill-rule="evenodd" fill-opacity="0.5" stroke="#000000" stroke-opacity="0.5" stroke-width="3.6"/>
<circle clip-path="url(#clip432)" cx="2490.22" cy="1590.99" r="14.4" fill="#1e90ff" fill-rule="evenodd" fill-opacity="0.5" stroke="#000000" stroke-opacity="0.5" stroke-width="3.6"/>
<circle clip-path="url(#clip432)" cx="2635.2" cy="679.694" r="14.4" fill="#1e90ff" fill-rule="evenodd" fill-opacity="0.5" stroke="#000000" stroke-opacity="0.5" stroke-width="3.6"/>
<circle clip-path="url(#clip432)" cx="2780.17" cy="572.483" r="14.4" fill="#1e90ff" fill-rule="evenodd" fill-opacity="0.5" stroke="#000000" stroke-opacity="0.5" stroke-width="3.6"/>
<circle clip-path="url(#clip432)" cx="2925.15" cy="1537.38" r="14.4" fill="#1e90ff" fill-rule="evenodd" fill-opacity="0.5" stroke="#000000" stroke-opacity="0.5" stroke-width="3.6"/>
<circle clip-path="url(#clip432)" cx="3070.12" cy="1202.35" r="14.4" fill="#1e90ff" fill-rule="evenodd" fill-opacity="0.5" stroke="#000000" stroke-opacity="0.5" stroke-width="3.6"/>
<polyline clip-path="url(#clip432)" style="stroke:#008000; stroke-linecap:round; stroke-linejoin:round; stroke-width:4; stroke-opacity:1; fill:none" stroke-dasharray="16, 10" points="-2686.83,1133.7 6072.55,1133.7 "/>
<polyline clip-path="url(#clip432)" style="stroke:#008000; stroke-linecap:round; stroke-linejoin:round; stroke-width:4; stroke-opacity:1; fill:none" stroke-dasharray="16, 10" points="-2686.83,728.609 6072.55,728.609 "/>
<polyline clip-path="url(#clip432)" style="stroke:#008000; stroke-linecap:round; stroke-linejoin:round; stroke-width:4; stroke-opacity:1; fill:none" stroke-dasharray="16, 10" points="-2686.83,323.516 6072.55,323.516 "/>
<polyline clip-path="url(#clip432)" style="stroke:#ff0000; stroke-linecap:round; stroke-linejoin:round; stroke-width:4; stroke-opacity:0.5; fill:none" points="315.6,347.914 460.575,387.987 605.549,428.06 750.524,468.134 895.499,508.207 1040.47,548.28 1185.45,588.353 1330.42,628.426 1475.4,668.499 1620.37,708.572 1765.35,748.645 1910.32,788.718 2055.3,828.791 2200.27,868.865 2345.25,908.938 2490.22,949.011 2635.2,989.084 2780.17,1029.16 2925.15,1069.23 3070.12,1109.3 "/>
</svg>
